<?xml version="1.0" encoding="utf-8"?>
<!-- Generator: Adobe Illustrator 15.0.0, SVG Export Plug-In . SVG Version: 6.00 Build 0)  -->
<!DOCTYPE svg PUBLIC "-//W3C//DTD SVG 1.1//EN" "http://www.w3.org/Graphics/SVG/1.1/DTD/svg11.dtd">
<svg version="1.1" id="Layer_1" xmlns="http://www.w3.org/2000/svg" xmlns:xlink="http://www.w3.org/1999/xlink" x="0px" y="0px"
	 width="792px" height="612px" viewBox="0 0 792 612" enable-background="new 0 0 792 612" xml:space="preserve">
<path id="path4278_4_" display="none" fill="#0075B2" d="M305.408,314.808c5.824-6.982,19.629-20.229,19.629-20.229
	c2.828-1.886,1.286-3.771,1.286-3.771s-1.403-2.217-1.886-3.429c-0.503-1.262-0.444-2.717-1.029-3.943
	c-0.581-1.217-0.342-2.13-1.543-2.743c-1.555-0.793-3.307,0.455-4.286-0.686c-1.339-1.561-0.555-5.235,0.514-6.857
	c1.724-2.616,4.278-4.399,5.729-7.5c1.397-2.986,0.986-7.157,0.643-10.1c-0.292-2.508-2.2-8.543-1.171-15.4
	c1.028-6.857,4.914-8.657,7.886-11.543c3.104-3.014,5.6-3.628,8-5s4.8,1.886,7.028,1.886s2.929-1.614,2.929-1.614
	s0.277-1.738,0.329-3.014l0,0c0.184-4.507-1.975-6.354-1.69-9.502c0.839-9.277,4.8-5.636,4.604-9.184
	c-0.118-2.136-3.743-1.722-3.6-5.314c0.137-3.438,3.946-6.771,7.592-6.49c7.384,0.57,5.992,5.813,6.343,7.788
	c9.412-0.597,15.097,5.14,14.865,11.559c-0.48,13.321-5.706,16.949-6.343,18.514c-0.367,0.901-0.776,2.692,0.171,2.915
	c1.654,0.388,4.939,0.349,8.571,1.886c1.272,0.538,1.603,1.526,3.771,1.714c2.329,0.202,4.851-0.242,6.857,1.469
	c2.007,1.711,2.866,1.939,4.458,1.959c3.819,0.048,6.512,2.861,10.408,3.674c6.486,1.354,12.663,0.997,19.86,0.881
	c7.262-0.116,14.424-2.417,21.674-2.841c2.997-0.175,6.329,0.555,8.988,0.588c3.504,0.044,5.271,0.228,9.33-0.833
	c1.386-0.362,3.795-2.687,6.195-2.498c2.6,0.205,4.973,2.571,4.973,2.571s0.902-2.146,2.154-2.008c1.646,0.182,2.4,2.645,2.4,2.645
	s17.388-4.065,33.845-8.522c16.457-4.457,33.085-9.428,51.085-15.771c18-6.343,28.115-13.371,28.115-13.371s0.668,6.105-4.457,8.743
	c-16.023,8.246-38.398,16.059-57.086,21.943c-18.672,5.879-49.957,13-49.957,13s-0.323,3.325-1.615,3.8
	c-0.799,0.294-2.285-1.143-2.285-1.143s-5.611,3.375-8.715,3.286c-2.344-0.067-6.428-2.857-6.428-2.857s-19.457,6.792-24.429,6.572
	c-0.272-0.825-0.143-1.271-0.761-1.483c-0.617-0.213-1.98-0.194-3.525-0.088c-0.23,6.211-0.199,10.094,2,23.857
	c0.058,3.478-1,8.143-1,8.143s-6.994-0.658-9.857-0.286c-0.291,3.802-2.143,5-2.143,5h-26.428c0,0-5.076-1.051-6.286-1.857
	c-1.221-0.813-1.469-2.323-3.714-2.857c-2.245,1.466-9,1.714-9,1.714s2.494,3.748,2.714,10.714
	c1.649,8.252,7.44,11.508,11.857,16.858c5.468,6.621,13.375,11.876,18.571,18.714c5.322,7.003,9.627,10.948,12.857,22.714
	c0.773,2.82-1.062,4.717,1,8.715c2.414,4.684,3.576,10.176,5,15c3.498,11.859,3.57,22.589,3.57,22.589
	c3.628,1.857,12.474,5.12,14.521,6.852c1.122,0.948,0.318,4.604-1.166,5.666c-2.046,1.463-5.153,0.899-7.667,0.834
	c-7.094-0.185-7.827-0.927-11.819-1.425c-3.52-0.44-6.671-4.886-9.181-6.575c-2.824-1.9-4.06,2.146-4.06,2.146
	s-10.546-5.238-16.612-5.314c-7.74-0.096-12.167-17.833-12.167-17.833s-15.527-1.405-19.735-12.167
	c-1.4-3.58-5.007-11.682-6.686-14.4c-2.772-4.49-9.086-13.371-9.086-13.371"/>
<path id="path4278_5_" display="none" fill="#CF232C" d="M336.231,214.337c0.188-4.541-2.016-6.401-1.725-9.573
	c0.856-9.346,4.9-5.678,4.701-9.252c-0.121-2.152-3.822-1.735-3.675-5.354c0.139-3.463,4.029-6.822,7.75-6.538
	c7.538,0.575,6.117,5.856,6.475,7.846c9.609-0.601,15.413,5.178,15.176,11.646c-0.49,13.42-5.825,17.075-6.475,18.652
	c-0.375,0.908-0.792,2.712,0.175,2.936c1.689,0.391,4.309,1.328,8.017,2.876c1.299,0.542,2.37,0.562,4.583,0.751
	c2.378,0.203,4.279,0.925,6.328,2.649c2.049,1.724,3.543,1.68,5.168,1.7c3.899,0.049,6.704,1.987,10.681,2.806
	c6.623,1.364,12.928,1.004,20.276,0.888c7.414-0.117,14.726-2.436,22.128-2.862c3.06-0.176,6.461,0.559,9.176,0.592
	c3.577,0.044,5.382,0.229,9.525-0.839c1.414-0.364,3.874-2.707,6.324-2.517c2.654,0.206,5.987,2.75,5.987,2.75
	s0.896-2.085,2.174-1.947c1.681,0.183,3.181,2.052,3.181,2.052s16.137-3.719,32.938-8.209c16.802-4.49,33.777-9.499,52.154-15.889
	c18.376-6.39,28.703-13.471,28.703-13.471s0.682,6.151-4.551,8.808c-16.358,8.308-39.201,16.178-58.279,22.106
	c-19.062,5.923-51.002,13.097-51.002,13.097s-0.33,3.35-1.649,3.828c-0.815,0.297-2.333-1.151-2.333-1.151s-5.568,2.073-8.736,1.983
	c-2.393-0.068-6.723-1.552-6.723-1.552s-19.864,6.843-24.939,6.621c-0.278-0.831-0.146-1.28-0.777-1.495
	c-0.63-0.215-2.021-0.195-3.599-0.089c-0.235,6.258-0.203,10.169,2.042,24.035c0.059,3.504-1.021,8.204-1.021,8.204
	s-7.141-0.663-10.063-0.288c-0.297,3.83-2.188,5.038-2.188,5.038l-26.535-3.534c0,0-4.891-0.531-6.125-1.343
	c-1.246-0.82-2.237,0.666-4.529,0.127c-2.292,1.477-9.188,1.727-9.188,1.727s2.546,3.776,2.771,10.794
	c1.683,8.314,7.596,11.594,12.105,16.983c5.583,6.671,13.655,11.965,18.96,18.854c5.434,7.056,9.828,11.03,13.127,22.884
	c0.789,2.841-1.084,4.752,1.021,8.779c2.465,4.719,3.651,10.252,5.104,15.112c3.571,11.948,3.792,26.194,3.792,26.194
	c3.703,1.871,12.989,4.789,15.08,6.533c1.146,0.955,0.466,3.248-1.05,4.318c-2.089,1.474-6.01,1.102-8.576,1.036
	c-7.242-0.187-8-1.916-12.075-2.418c-3.594-0.443-0.97-5.977-3.531-7.679c-2.884-1.914-9.771,2.325-9.771,2.325
	s-12.282,2.787-18.476,2.71c-7.901-0.096-23.481-2.685-23.481-2.685s-3.277-24.762-7.573-35.604
	c-1.429-3.606-5.111-11.769-6.825-14.508c-2.831-4.523-9.276-13.471-9.276-13.471s-9.805,22.223-10.851,27.46
	c-0.494,2.475-0.641,8.399-3.15,13.989c-3.633,8.095-10.326,24.524-10.326,24.524s-12.486,0.511-18.727,0.346
	c-4.853-0.128-14.526-1.036-14.526-1.036s0.032,1.804-0.525,2.417c-1.6,1.765-4.655,1.24-6.826,2.245
	c-3.296,1.529-5.93,4.279-9.276,5.701c-2.326,0.987-4.82,2.015-7.351,1.898c-2.046-0.093-4.859-0.264-5.775-2.072
	c-0.9-1.774,0.599-4.071,1.75-5.699c2.384-3.371,9.976-7.427,9.976-7.427s-0.374-17.218,0.7-25.734
	c1.151-9.133,4.87-17.821,6.125-26.941c0.637-4.626-0.943-9.61,0.7-13.989c2.974-7.927,10.643-13.25,15.751-20.034
	c2.221-2.948,4.091-6.159,6.476-8.98c5.946-7.034,20.04-20.379,20.04-20.379c2.887-1.9,1.312-3.8,1.312-3.8
	s-1.433-2.233-1.925-3.454c-0.514-1.271-0.453-2.737-1.05-3.973c-0.593-1.226-0.349-2.146-1.575-2.763
	c-1.587-0.799-3.376,0.459-4.375-0.691c-1.367-1.573-0.566-5.274,0.525-6.908c1.76-2.635,4.368-4.432,5.849-7.556
	c1.426-3.008,1.006-7.211,0.656-10.176c-0.298-2.526-2.246-8.606-1.196-15.515c1.05-6.908,5.017-8.722,8.051-11.629
	c3.169-3.037,5.717-3.655,8.167-5.037c2.45-1.382,4.9,1.9,7.175,1.9c2.275,0,2.99-1.626,2.99-1.626S336.178,215.624,336.231,214.337
	L336.231,214.337z"/>
<g id="use3649_1_" transform="translate(-754.506, 354.066)" display="none">
	<path id="path4278-4_3_" display="inline" fill="#212121" d="M504.199,225.651c0.838-0.256,15.132-3.226,15.968-3.484
		c16.457-5.107,18.666-4.566,36.666-11.833c18-7.268,29.255-10.62,29.255-10.62s0.668,6.995-4.457,10.017
		c-16.023,9.449-38.398,18.399-57.086,25.141c-5.971,2.154-13.23,4.453-20.346,6.584"/>
	<path id="path4278-4_2_" display="inline" fill="#212121" d="M504.199,236.123c-15.135,3.958-29.611,7.253-29.611,7.253
		s-0.322,3.325-1.614,3.8c-0.8,0.294-2.286-1.143-2.286-1.143s-5.611,3.375-8.715,3.286c-2.344-0.067-6.428-2.857-6.428-2.857
		s-19.457,6.792-24.429,6.571c-0.272-0.824-0.143-1.27-0.76-1.483c-0.618-0.213-1.981-0.193-3.526-0.088
		c-0.23,6.211-0.199,10.093,2,23.857c0.059,3.478-1,8.143-1,8.143s-6.993-0.659-9.857-0.286c-0.291,3.801-2.143,5-2.143,5h-26.428
		c0,0-5.076-1.051-6.286-1.857c-1.221-0.813-1.469-2.322-3.714-2.857c-2.245,1.465-9,1.714-9,1.714s2.494,3.748,2.714,10.714
		c1.649,8.252,7.441,11.508,11.857,16.857c5.468,6.622,13.375,11.877,18.572,18.714c5.322,7.004,9.627,10.948,12.857,22.715
		c0.773,2.819-1.062,4.717,1,8.715c2.414,4.684,3.576,10.176,5,15c3.499,11.859,3.714,26,3.714,26
		c3.628,1.856,12.724,4.754,14.771,6.484c1.122,0.949,0.456,3.225-1.028,4.287c-2.045,1.463-5.887,1.094-8.4,1.027
		c-7.093-0.185-7.836-1.9-11.828-2.399c-3.52-0.44-8.462,0.661-10.972-1.028c-2.824-1.901-2.058-4.286-2.058-4.286
		s-12.104,1.104-18.171,1.028c-7.739-0.096-23.143-1.885-23.143-1.885s-2.992-23.695-7.2-34.457
		c-1.399-3.581-5.007-11.682-6.686-14.4c-2.772-4.491-9.085-13.371-9.085-13.371s-9.604,22.059-10.629,27.256
		c-0.484,2.457-0.627,8.337-3.085,13.887c-3.559,8.033-10.114,24.342-10.114,24.342s-12.23,0.507-18.343,0.344
		c-4.754-0.127-14.229-1.029-14.229-1.029s0.031,1.791-0.515,2.4c-1.566,1.75-4.56,1.229-6.686,2.229
		c-3.229,1.518-5.809,4.246-9.086,5.657c-2.279,0.981-4.722,2.001-7.2,1.886c-2.004-0.093-4.759-0.263-5.657-2.057
		c-0.882-1.763,0.586-4.042,1.714-5.658c2.335-3.346,9.771-7.371,9.771-7.371s-0.366-17.09,0.686-25.543
		c1.128-9.065,4.77-17.689,6-26.742c0.624-4.592-0.923-9.54,0.686-13.887c2.913-7.867,10.424-13.151,15.429-19.885
		c2.175-2.928,4.007-6.114,6.343-8.914c5.824-6.982,19.629-20.229,19.629-20.229c2.829-1.886,1.286-3.771,1.286-3.771
		s-1.403-2.217-1.886-3.429c-0.502-1.262-0.444-2.717-1.029-3.943c-0.581-1.217-0.341-2.129-1.542-2.743
		c-1.555-0.793-3.307,0.455-4.286-0.686c-1.34-1.562-0.555-5.235,0.514-6.857c1.724-2.615,4.278-4.399,5.729-7.5
		c1.396-2.986,0.986-7.157,0.643-10.1c-0.292-2.508-2.2-8.543-1.171-15.4c1.029-6.857,4.915-8.657,7.886-11.543
		c3.104-3.014,5.6-3.628,8-5c2.4-1.371,4.8,1.886,7.029,1.886c2.229,0,2.928-1.614,2.928-1.614s0.277-1.737,0.329-3.014h-0.001
		c0.184-4.507-1.975-6.354-1.689-9.502c0.839-9.277,4.8-5.636,4.604-9.184c-0.118-2.136-3.743-1.722-3.6-5.314
		c0.137-3.438,3.947-6.771,7.592-6.49c7.384,0.57,5.992,5.813,6.343,7.788c9.412-0.597,15.096,5.14,14.865,11.559
		c-0.48,13.321-5.706,16.949-6.343,18.515c-0.367,0.901-0.776,2.692,0.171,2.914c1.654,0.389,4.938,0.349,8.571,1.886
		c1.272,0.538,1.603,1.526,3.771,1.714c2.329,0.202,4.851-0.242,6.857,1.469c2.007,1.711,2.866,1.939,4.458,1.959
		c3.819,0.048,6.512,2.86,10.408,3.673c6.487,1.354,12.664,0.997,19.861,0.882c7.262-0.116,14.424-2.417,21.674-2.841
		c2.997-0.175,6.329,0.555,8.988,0.587c3.504,0.044,5.271,0.228,9.33-0.833c1.386-0.362,3.795-2.687,6.195-2.498
		c2.6,0.205,4.973,2.571,4.973,2.571s0.902-2.146,2.154-2.008c1.646,0.181,2.4,2.645,2.4,2.645s15.667-3.663,31.333-7.848"/>
</g>
<g>
	<g id="use3647" transform="translate(-754.506, 354.066)">
		
			<radialGradient id="rect4338_5_" cx="699.9473" cy="402.5068" r="152.0742" gradientTransform="matrix(0.8571 0 0 -0.8571 -435.2856 501.5713)" gradientUnits="userSpaceOnUse">
			<stop  offset="0" style="stop-color:#555555"/>
			<stop  offset="1" style="stop-color:#222222"/>
		</radialGradient>
		<path id="rect4338_1_" fill="url(#rect4338_5_)" d="M71.562,26.216h186.213c20.568,0,37.243,16.674,37.243,37.243v186.212
			c0,20.569-16.674,37.243-37.243,37.243H71.562c-20.569,0-37.243-16.674-37.243-37.243V63.459
			C34.319,42.891,50.993,26.216,71.562,26.216z"/>
	</g>
	<g id="use3649" transform="translate(-754.506, 354.066)">
		<path id="path4278-4_1_" fill="#212121" d="M153.377,79.697c0.159-3.917-1.716-5.521-1.468-8.257
			c0.729-8.062,4.171-4.898,4.001-7.98c-0.103-1.856-3.252-1.497-3.128-4.618c0.119-2.987,3.43-5.885,6.597-5.64
			c6.417,0.496,5.207,5.052,5.512,6.767c8.179-0.519,13.118,4.466,12.917,10.045c-0.417,11.576-4.958,14.729-5.512,16.089
			c-0.319,0.783-0.674,2.339,0.149,2.532c1.438,0.338,4.292,0.303,7.449,1.639c1.105,0.467,1.393,1.326,3.277,1.49
			c2.023,0.175,4.215-0.21,5.958,1.277c1.744,1.487,2.49,1.685,3.874,1.703c3.318,0.042,5.659,2.486,9.044,3.192
			c5.637,1.177,11.005,0.866,17.259,0.767c6.311-0.101,12.534-2.101,18.834-2.469c2.604-0.152,5.5,0.482,7.811,0.51
			c3.045,0.039,4.581,0.198,8.108-0.723c1.204-0.314,3.298-2.335,5.384-2.171c2.259,0.178,4.321,2.234,4.321,2.234
			s0.784-1.865,1.872-1.745c1.431,0.157,2.086,2.298,2.086,2.298s15.11-3.532,29.411-7.406c14.301-3.873,28.751-8.193,44.393-13.705
			c15.642-5.512,24.432-11.62,24.432-11.62s0.581,5.305-3.873,7.597c-13.924,7.167-33.368,13.956-49.607,19.068
			c-16.226,5.109-43.413,11.297-43.413,11.297s-0.28,2.889-1.403,3.302c-0.695,0.256-1.986-0.993-1.986-0.993
			s-4.876,2.933-7.573,2.855c-2.037-0.059-5.586-2.483-5.586-2.483s-16.908,5.902-21.228,5.71c-0.237-0.716-0.124-1.104-0.661-1.289
			c-0.537-0.185-1.722-0.168-3.064-0.076c-0.201,5.397-0.173,8.771,1.738,20.731c0.051,3.022-0.869,7.076-0.869,7.076
			s-6.077-0.572-8.566-0.248c-0.253,3.303-1.862,4.345-1.862,4.345h-22.966c0,0-4.411-0.914-5.462-1.614
			c-1.061-0.707-1.277-2.018-3.228-2.482c-1.951,1.273-7.821,1.49-7.821,1.49s2.167,3.257,2.359,9.311
			c1.433,7.171,6.466,10.001,10.304,14.649c4.752,5.754,11.623,10.321,16.139,16.262c4.625,6.086,8.366,9.514,11.173,19.739
			c0.672,2.45-0.922,4.099,0.869,7.573c2.098,4.07,3.108,8.843,4.345,13.035c3.041,10.306,3.228,22.594,3.228,22.594
			c3.153,1.613,11.057,4.131,12.836,5.635c0.975,0.825,0.396,2.802-0.894,3.726c-1.777,1.271-5.116,0.951-7.3,0.893
			c-6.164-0.16-6.81-1.651-10.279-2.085c-3.059-0.383-7.354,0.575-9.534-0.894c-2.455-1.652-1.788-3.725-1.788-3.725
			s-10.519,0.96-15.791,0.894c-6.726-0.083-20.111-1.638-20.111-1.638s-2.6-20.591-6.257-29.943
			c-1.216-3.112-4.351-10.151-5.81-12.514c-2.409-3.903-7.896-11.619-7.896-11.619s-8.346,19.168-9.236,23.685
			c-0.42,2.135-0.545,7.245-2.681,12.067c-3.092,6.981-8.789,21.153-8.789,21.153s-10.628,0.44-15.94,0.299
			c-4.131-0.11-12.365-0.895-12.365-0.895s0.027,1.557-0.447,2.086c-1.361,1.521-3.962,1.068-5.81,1.937
			c-2.806,1.319-5.048,3.69-7.896,4.916c-1.98,0.853-4.103,1.739-6.256,1.639c-1.742-0.081-4.136-0.228-4.916-1.787
			c-0.767-1.532,0.509-3.512,1.49-4.917c2.029-2.907,8.491-6.405,8.491-6.405s-0.318-14.851,0.596-22.197
			c0.98-7.878,4.145-15.372,5.214-23.239c0.542-3.99-0.802-8.29,0.596-12.067c2.532-6.836,9.059-11.429,13.408-17.28
			c1.89-2.544,3.482-5.313,5.512-7.746c5.061-6.068,17.058-17.579,17.058-17.579c2.458-1.639,1.117-3.277,1.117-3.277
			s-1.22-1.926-1.639-2.979c-0.437-1.097-0.386-2.361-0.894-3.426c-0.505-1.058-0.297-1.851-1.341-2.384
			c-1.351-0.689-2.874,0.396-3.724-0.596c-1.164-1.357-0.482-4.549,0.447-5.959c1.498-2.272,3.718-3.823,4.978-6.518
			c1.214-2.594,0.857-6.219,0.559-8.776c-0.254-2.179-1.912-7.424-1.018-13.383c0.894-5.958,4.271-7.523,6.853-10.031
			c2.697-2.619,4.866-3.153,6.952-4.345s4.171,1.639,6.108,1.639c1.937,0,2.545-1.403,2.545-1.403S153.332,80.807,153.377,79.697
			L153.377,79.697z"/>
	</g>
	<g>
		<defs>
			<path id="SVGID_1_" d="M71.562,26.216h186.213c20.568,0,37.243,16.674,37.243,37.243v186.212
				c0,20.569-16.674,37.243-37.243,37.243H71.562c-20.569,0-37.243-16.674-37.243-37.243V63.459
				C34.319,42.891,50.993,26.216,71.562,26.216z"/>
		</defs>
		<clipPath id="SVGID_2_">
			<use xlink:href="#SVGID_1_"  overflow="visible"/>
		</clipPath>
		<path id="path4278_3_" clip-path="url(#SVGID_2_)" fill="#0075B2" d="M156.731,183.998c0,0-8.346,27.866-9.236,32.383
			c-0.42,2.134-0.545,7.245-2.681,12.066c-3.092,6.982-8.789,21.154-8.789,21.154s-10.628,0.44-15.94,0.298
			c-4.13-0.11-12.364-0.894-12.364-0.894s0.027,1.556-0.447,2.085c-1.362,1.522-3.962,1.069-5.81,1.937
			c-2.806,1.318-5.048,3.69-7.896,4.917c-1.98,0.852-4.103,1.738-6.257,1.638c-1.742-0.08-4.136-0.228-4.916-1.787
			c-0.767-1.531,0.51-3.512,1.49-4.917c2.029-2.907,8.491-6.406,8.491-6.406s-0.318-14.851,0.596-22.197
			c0.98-7.877,4.145-15.372,5.214-23.239c0.542-3.99-0.802-8.289,0.596-12.066c2.531-6.837,9.059-11.429,13.407-17.281
			c1.89-2.543,3.482-5.312,5.512-7.746"/>
		<path id="path4278_2_" clip-path="url(#SVGID_2_)" fill="#0075B2" d="M122.049,163.943c5.061-6.068,17.058-17.579,17.058-17.579
			c2.458-1.639,1.117-3.277,1.117-3.277s-1.22-1.926-1.639-2.979c-0.437-1.097-0.386-2.361-0.894-3.426
			c-0.505-1.058-0.297-1.851-1.341-2.383c-1.351-0.689-2.874,0.396-3.725-0.596c-1.164-1.356-0.482-4.549,0.447-5.959
			c1.498-2.273,3.718-3.823,4.979-6.517c1.214-2.595,0.856-6.22,0.559-8.777c-0.254-2.18-1.912-7.424-1.018-13.383
			c0.894-5.958,4.271-7.523,6.853-10.031c2.697-2.619,4.866-3.153,6.952-4.345s4.171,1.639,6.107,1.639
			c1.937,0,2.545-1.403,2.545-1.403s0.24-1.51,0.286-2.619l0,0c0.159-3.917-1.716-5.522-1.469-8.257
			c0.729-8.062,4.171-4.898,4.001-7.981c-0.103-1.856-3.253-1.496-3.129-4.618c0.119-2.988,3.43-5.884,6.598-5.64
			c6.417,0.496,5.207,5.051,5.512,6.768c8.179-0.519,13.119,4.466,12.918,10.044c-0.417,11.576-4.958,14.729-5.512,16.089
			c-0.319,0.783-0.674,2.339,0.149,2.533c1.438,0.337,4.292,0.303,7.449,1.639c1.105,0.468,1.393,1.327,3.277,1.49
			c2.024,0.175,4.215-0.21,5.958,1.277c1.744,1.487,2.491,1.685,3.874,1.702c3.319,0.042,5.659,2.486,9.044,3.193
			c5.637,1.176,11.004,0.866,17.259,0.766c6.311-0.101,12.534-2.101,18.834-2.469c2.604-0.152,5.5,0.482,7.811,0.511
			c3.045,0.038,4.581,0.198,8.108-0.724c1.204-0.314,3.298-2.335,5.384-2.171c2.259,0.178,4.321,2.234,4.321,2.234
			s0.784-1.865,1.872-1.745c1.431,0.158,2.086,2.298,2.086,2.298s15.11-3.532,29.411-7.406c14.301-3.873,28.751-8.193,44.393-13.705
			c15.642-5.512,24.432-11.62,24.432-11.62s0.581,5.305-3.873,7.597c-13.924,7.166-33.368,13.955-49.607,19.068
			c-16.226,5.109-43.413,11.297-43.413,11.297s-0.281,2.889-1.403,3.302c-0.694,0.256-1.986-0.993-1.986-0.993
			s-4.876,2.933-7.573,2.855c-2.037-0.059-5.586-2.483-5.586-2.483s-16.908,5.902-21.228,5.711
			c-0.237-0.717-0.124-1.104-0.661-1.289c-0.537-0.186-1.721-0.168-3.063-0.077c-0.201,5.397-0.173,8.771,1.738,20.732
			c0.05,3.022-0.869,7.076-0.869,7.076s-6.078-0.572-8.566-0.248c-0.253,3.304-1.862,4.345-1.862,4.345h-22.966
			c0,0-4.411-0.913-5.462-1.613c-1.061-0.707-1.277-2.019-3.228-2.483c-1.951,1.274-7.821,1.49-7.821,1.49s2.167,3.257,2.359,9.311
			c1.433,7.171,6.466,10,10.304,14.649c4.751,5.753,11.623,10.32,16.138,16.262c4.625,6.085,8.366,9.514,11.173,19.738
			c0.672,2.451-0.922,4.099,0.869,7.573c2.098,4.07,3.108,8.842,4.345,13.035c3.04,10.306,3.103,19.629,3.103,19.629
			c3.152,1.614,10.839,4.45,12.619,5.954c0.975,0.824,0.276,4-1.014,4.924c-1.778,1.271-4.478,0.782-6.663,0.725
			c-6.164-0.16-6.802-0.805-10.271-1.238c-3.058-0.383-5.797-4.246-7.978-5.714c-2.455-1.651-3.528,1.864-3.528,1.864
			s-9.165-4.552-14.436-4.618c-6.726-0.083-10.573-15.497-10.573-15.497s-13.493-1.221-17.15-10.573
			c-1.216-3.111-4.351-10.151-5.81-12.514c-2.409-3.902-7.896-11.619-7.896-11.619"/>
		<path id="path4278_16_" clip-path="url(#SVGID_2_)" fill="#CF232C" d="M147.29,77.958c0.16-3.917-1.716-5.521-1.469-8.257
			c0.729-8.062,4.171-4.898,4.001-7.981c-0.103-1.856-3.253-1.496-3.128-4.618c0.119-2.988,3.429-5.885,6.597-5.64
			c6.417,0.496,5.207,5.051,5.512,6.767c8.179-0.519,13.119,4.466,12.918,10.045c-0.417,11.576-4.958,14.729-5.512,16.089
			c-0.319,0.783-0.674,2.339,0.149,2.533c1.438,0.337,3.667,1.145,6.824,2.48c1.105,0.468,2.017,0.484,3.901,0.648
			c2.024,0.175,3.643,0.798,5.386,2.285c1.744,1.487,3.016,1.449,4.399,1.467c3.319,0.042,5.706,1.714,9.092,2.42
			c5.637,1.177,11.004,0.866,17.259,0.766c6.311-0.101,12.534-2.101,18.834-2.469c2.604-0.152,5.5,0.482,7.811,0.511
			c3.045,0.039,4.581,0.198,8.107-0.723c1.205-0.314,3.298-2.335,5.384-2.171c2.259,0.178,5.096,2.372,5.096,2.372
			s0.762-1.799,1.85-1.679c1.431,0.158,2.708,1.771,2.708,1.771s13.735-3.208,28.036-7.082c14.301-3.873,28.75-8.193,44.393-13.706
			c15.642-5.512,24.432-11.619,24.432-11.619s0.581,5.305-3.873,7.597c-13.924,7.166-33.368,13.955-49.607,19.068
			c-16.226,5.109-43.412,11.297-43.412,11.297s-0.281,2.889-1.404,3.302c-0.694,0.256-1.986-0.993-1.986-0.993
			s-4.74,1.789-7.437,1.711c-2.037-0.059-5.722-1.339-5.722-1.339s-16.908,5.902-21.229,5.711c-0.237-0.717-0.124-1.104-0.661-1.289
			c-0.536-0.186-1.721-0.168-3.063-0.077c-0.2,5.397-0.173,8.771,1.738,20.732c0.05,3.022-0.869,7.076-0.869,7.076
			s-6.078-0.572-8.566-0.248c-0.253,3.304-1.862,4.345-1.862,4.345l-22.586-3.048c0,0-4.163-0.458-5.214-1.158
			c-1.061-0.707-1.905,0.574-3.855,0.109c-1.951,1.274-7.821,1.49-7.821,1.49s2.167,3.257,2.358,9.311
			c1.433,7.171,6.466,10.001,10.304,14.65c4.752,5.753,11.623,10.32,16.138,16.262c4.625,6.085,8.366,9.514,11.174,19.738
			c0.672,2.451-0.923,4.099,0.869,7.573c2.098,4.07,3.108,8.843,4.345,13.035c3.04,10.306,3.227,22.594,3.227,22.594
			c3.153,1.614,11.057,4.131,12.836,5.636c0.975,0.824,0.396,2.801-0.894,3.725c-1.778,1.271-5.115,0.951-7.3,0.894
			c-6.165-0.16-6.81-1.652-10.279-2.085c-3.058-0.383-0.825-5.155-3.006-6.624c-2.454-1.651-8.316,2.005-8.316,2.005
			s-10.454,2.404-15.726,2.338c-6.726-0.083-19.987-2.316-19.987-2.316s-2.789-21.358-6.445-30.71
			c-1.217-3.111-4.351-10.151-5.81-12.514c-2.409-3.902-7.896-11.619-7.896-11.619s-8.346,19.168-9.236,23.686
			c-0.421,2.134-0.546,7.245-2.682,12.066c-3.092,6.982-8.789,21.154-8.789,21.154s-10.628,0.44-15.94,0.298
			c-4.13-0.11-12.364-0.894-12.364-0.894s0.027,1.556-0.447,2.085c-1.362,1.521-3.962,1.069-5.81,1.937
			c-2.806,1.319-5.048,3.691-7.896,4.917c-1.98,0.852-4.103,1.738-6.257,1.638c-1.742-0.08-4.136-0.228-4.916-1.788
			c-0.766-1.531,0.51-3.511,1.49-4.916c2.029-2.907,8.491-6.406,8.491-6.406s-0.318-14.851,0.596-22.197
			c0.98-7.878,4.146-15.372,5.214-23.239c0.542-3.99-0.803-8.29,0.596-12.066c2.531-6.837,9.059-11.429,13.407-17.281
			c1.89-2.543,3.482-5.312,5.512-7.746c5.062-6.067,17.058-17.579,17.058-17.579c2.458-1.639,1.117-3.277,1.117-3.277
			s-1.219-1.926-1.639-2.979c-0.437-1.097-0.386-2.361-0.894-3.426c-0.504-1.058-0.297-1.851-1.341-2.384
			c-1.351-0.689-2.874,0.396-3.724-0.596c-1.164-1.357-0.482-4.549,0.447-5.959c1.498-2.273,3.718-3.823,4.978-6.518
			c1.214-2.594,0.856-6.219,0.559-8.777c-0.253-2.179-1.912-7.424-1.018-13.382c0.894-5.958,4.27-7.523,6.853-10.031
			c2.697-2.619,4.866-3.153,6.952-4.345c2.085-1.192,4.171,1.639,6.107,1.639s2.545-1.403,2.545-1.403S147.245,79.067,147.29,77.958
			L147.29,77.958z"/>
		<path id="path4278_1_" clip-path="url(#SVGID_2_)" fill="#DFDFDE" d="M153.377,79.697c0.16-3.917-1.716-5.521-1.468-8.257
			c0.729-8.062,4.171-4.898,4.001-7.981c-0.103-1.856-3.253-1.496-3.129-4.618c0.119-2.987,3.43-5.884,6.598-5.639
			c6.416,0.496,5.207,5.051,5.512,6.767c8.179-0.519,13.119,4.466,12.917,10.045c-0.417,11.576-4.958,14.729-5.512,16.089
			c-0.319,0.783-0.674,2.339,0.149,2.533c1.438,0.337,4.292,0.303,7.449,1.639c1.105,0.467,1.393,1.326,3.277,1.49
			c2.024,0.175,4.215-0.21,5.958,1.277c1.744,1.487,2.49,1.685,3.874,1.702c3.319,0.042,5.659,2.486,9.044,3.192
			c5.637,1.177,11.005,0.866,17.259,0.766c6.311-0.101,12.534-2.101,18.834-2.469c2.604-0.152,5.5,0.482,7.811,0.511
			c3.045,0.039,4.581,0.198,8.108-0.723c1.204-0.314,3.298-2.335,5.384-2.171c2.259,0.178,4.321,2.234,4.321,2.234
			s0.784-1.865,1.872-1.745c1.431,0.158,2.086,2.298,2.086,2.298s15.11-3.532,29.411-7.406c14.301-3.873,28.751-8.193,44.393-13.706
			c15.642-5.512,24.432-11.619,24.432-11.619s0.581,5.305-3.873,7.597c-13.924,7.166-33.368,13.955-49.607,19.068
			c-16.226,5.109-43.413,11.297-43.413,11.297s-0.281,2.889-1.403,3.302c-0.694,0.256-1.986-0.993-1.986-0.993
			s-4.876,2.933-7.573,2.855c-2.037-0.059-5.586-2.483-5.586-2.483s-16.908,5.902-21.228,5.711
			c-0.237-0.717-0.124-1.104-0.661-1.289c-0.537-0.186-1.721-0.168-3.063-0.077c-0.201,5.397-0.173,8.771,1.738,20.732
			c0.05,3.022-0.869,7.076-0.869,7.076s-6.078-0.572-8.566-0.248c-0.253,3.304-1.862,4.345-1.862,4.345h-22.966
			c0,0-4.411-0.913-5.462-1.614c-1.061-0.707-1.277-2.018-3.228-2.483c-1.951,1.274-7.821,1.49-7.821,1.49s2.167,3.257,2.359,9.311
			c1.433,7.171,6.466,10.001,10.304,14.649c4.752,5.754,11.622,10.32,16.139,16.262c4.625,6.086,8.366,9.514,11.173,19.738
			c0.672,2.451-0.922,4.099,0.869,7.573c2.098,4.07,3.108,8.843,4.345,13.035c3.04,10.306,3.228,22.594,3.228,22.594
			c3.153,1.614,11.057,4.131,12.836,5.636c0.975,0.824,0.396,2.801-0.894,3.725c-1.778,1.271-5.116,0.951-7.3,0.894
			c-6.165-0.16-6.81-1.652-10.279-2.085c-3.059-0.383-7.354,0.574-9.534-0.895c-2.455-1.651-1.788-3.724-1.788-3.724
			s-10.519,0.959-15.791,0.893c-6.725-0.083-20.111-1.638-20.111-1.638s-2.6-20.591-6.257-29.943
			c-1.216-3.111-4.351-10.151-5.81-12.514c-2.409-3.902-7.896-11.619-7.896-11.619s-8.346,19.168-9.236,23.686
			c-0.42,2.134-0.545,7.245-2.681,12.066c-3.092,6.982-8.789,21.154-8.789,21.154s-10.628,0.44-15.94,0.298
			c-4.131-0.11-12.364-0.894-12.364-0.894s0.027,1.556-0.447,2.085c-1.362,1.521-3.962,1.069-5.81,1.937
			c-2.806,1.319-5.048,3.691-7.896,4.917c-1.98,0.852-4.103,1.738-6.257,1.638c-1.742-0.08-4.136-0.227-4.916-1.787
			c-0.767-1.531,0.509-3.512,1.49-4.916c2.029-2.907,8.491-6.406,8.491-6.406s-0.318-14.851,0.596-22.197
			c0.98-7.878,4.145-15.372,5.214-23.239c0.542-3.99-0.802-8.29,0.596-12.066c2.532-6.837,9.059-11.429,13.408-17.281
			c1.89-2.543,3.482-5.312,5.512-7.746c5.061-6.067,17.058-17.579,17.058-17.579c2.458-1.639,1.117-3.277,1.117-3.277
			s-1.22-1.927-1.639-2.979c-0.438-1.097-0.386-2.361-0.894-3.427c-0.505-1.058-0.297-1.851-1.341-2.383
			c-1.351-0.689-2.874,0.396-3.725-0.596c-1.164-1.356-0.482-4.549,0.447-5.958c1.498-2.273,3.718-3.823,4.979-6.518
			c1.214-2.595,0.856-6.219,0.559-8.777c-0.254-2.179-1.912-7.424-1.018-13.382c0.894-5.958,4.271-7.523,6.853-10.031
			c2.697-2.619,4.866-3.153,6.952-4.345s4.171,1.639,6.107,1.639c1.937,0,2.545-1.403,2.545-1.403S153.332,80.807,153.377,79.697
			L153.377,79.697z"/>
	</g>
</g>
<g>
	<g id="use3647_1_" transform="translate(-754.506, 354.066)">
		
			<radialGradient id="rect4338_6_" cx="1143.627" cy="402.5068" r="152.0742" gradientTransform="matrix(0.8571 0 0 -0.8571 -435.2856 501.5713)" gradientUnits="userSpaceOnUse">
			<stop  offset="0" style="stop-color:#555555"/>
			<stop  offset="1" style="stop-color:#222222"/>
		</radialGradient>
		<path id="rect4338_2_" fill="url(#rect4338_6_)" d="M451.859,26.216h186.213c20.568,0,37.243,16.674,37.243,37.243v186.212
			c0,20.569-16.675,37.243-37.243,37.243H451.859c-20.569,0-37.243-16.674-37.243-37.243V63.459
			C414.616,42.891,431.29,26.216,451.859,26.216z"/>
	</g>
	<g id="use3649_2_" transform="translate(-754.506, 354.066)">
		<path id="path4278-4_4_" fill="#212121" d="M533.674,79.697c0.159-3.917-1.716-5.521-1.468-8.257
			c0.729-8.062,4.171-4.898,4.001-7.98c-0.103-1.856-3.253-1.497-3.129-4.618c0.119-2.987,3.43-5.885,6.598-5.64
			c6.416,0.496,5.207,5.052,5.512,6.767c8.179-0.519,13.118,4.466,12.918,10.045c-0.417,11.576-4.958,14.729-5.512,16.089
			c-0.319,0.783-0.675,2.339,0.148,2.532c1.438,0.338,4.292,0.303,7.449,1.639c1.104,0.467,1.393,1.326,3.277,1.49
			c2.023,0.175,4.215-0.21,5.958,1.277c1.744,1.487,2.49,1.685,3.874,1.703c3.318,0.042,5.659,2.486,9.044,3.192
			c5.638,1.177,11.005,0.866,17.26,0.767c6.311-0.101,12.534-2.101,18.834-2.469c2.604-0.152,5.5,0.482,7.811,0.51
			c3.045,0.039,4.581,0.198,8.108-0.723c1.204-0.314,3.298-2.335,5.384-2.171c2.259,0.178,4.321,2.234,4.321,2.234
			s0.784-1.865,1.872-1.745c1.431,0.157,2.086,2.298,2.086,2.298s15.109-3.532,29.41-7.406c14.302-3.873,28.751-8.193,44.393-13.705
			c15.643-5.512,24.433-11.62,24.433-11.62s0.58,5.305-3.873,7.597c-13.925,7.167-33.368,13.956-49.607,19.068
			c-16.227,5.109-43.413,11.297-43.413,11.297s-0.279,2.889-1.402,3.302c-0.695,0.256-1.986-0.993-1.986-0.993
			s-4.877,2.933-7.573,2.855c-2.037-0.059-5.586-2.483-5.586-2.483s-16.908,5.902-21.229,5.71c-0.236-0.716-0.124-1.104-0.66-1.289
			c-0.537-0.185-1.722-0.168-3.064-0.076c-0.2,5.397-0.173,8.771,1.738,20.731c0.051,3.022-0.869,7.076-0.869,7.076
			s-6.077-0.572-8.566-0.248c-0.253,3.303-1.861,4.345-1.861,4.345h-22.967c0,0-4.411-0.914-5.462-1.614
			c-1.061-0.707-1.276-2.018-3.228-2.482c-1.951,1.273-7.821,1.49-7.821,1.49s2.168,3.257,2.359,9.311
			c1.433,7.171,6.466,10.001,10.304,14.649c4.752,5.754,11.623,10.321,16.139,16.262c4.625,6.086,8.365,9.514,11.173,19.739
			c0.672,2.45-0.923,4.099,0.869,7.573c2.098,4.07,3.107,8.843,4.345,13.035c3.041,10.306,3.228,22.594,3.228,22.594
			c3.152,1.613,11.057,4.131,12.836,5.635c0.976,0.825,0.396,2.802-0.894,3.726c-1.777,1.271-5.115,0.951-7.3,0.893
			c-6.163-0.16-6.81-1.651-10.278-2.085c-3.059-0.383-7.354,0.575-9.534-0.894c-2.455-1.652-1.788-3.725-1.788-3.725
			s-10.52,0.96-15.791,0.894c-6.726-0.083-20.111-1.638-20.111-1.638s-2.6-20.591-6.257-29.943
			c-1.216-3.112-4.351-10.151-5.81-12.514c-2.409-3.903-7.896-11.619-7.896-11.619s-8.346,19.168-9.236,23.685
			c-0.42,2.135-0.545,7.245-2.681,12.067c-3.093,6.981-8.789,21.153-8.789,21.153s-10.628,0.44-15.94,0.299
			c-4.131-0.11-12.364-0.895-12.364-0.895s0.027,1.557-0.447,2.086c-1.361,1.521-3.962,1.068-5.81,1.937
			c-2.806,1.319-5.048,3.69-7.896,4.916c-1.98,0.853-4.104,1.739-6.257,1.639c-1.742-0.081-4.136-0.228-4.916-1.787
			c-0.767-1.532,0.51-3.512,1.49-4.917c2.028-2.907,8.491-6.405,8.491-6.405s-0.318-14.851,0.596-22.197
			c0.979-7.878,4.145-15.372,5.214-23.239c0.542-3.99-0.803-8.29,0.596-12.067c2.531-6.836,9.059-11.429,13.407-17.28
			c1.891-2.544,3.482-5.313,5.512-7.746c5.062-6.068,17.058-17.579,17.058-17.579c2.458-1.639,1.117-3.277,1.117-3.277
			s-1.22-1.926-1.639-2.979c-0.437-1.097-0.386-2.361-0.894-3.426c-0.505-1.058-0.297-1.851-1.341-2.384
			c-1.352-0.689-2.874,0.396-3.725-0.596c-1.164-1.357-0.482-4.549,0.447-5.959c1.498-2.272,3.718-3.823,4.978-6.518
			c1.214-2.594,0.857-6.219,0.559-8.776c-0.254-2.179-1.911-7.424-1.018-13.383c0.894-5.958,4.271-7.523,6.853-10.031
			c2.697-2.619,4.866-3.153,6.952-4.345c2.085-1.192,4.171,1.639,6.107,1.639s2.545-1.403,2.545-1.403
			S533.629,80.807,533.674,79.697L533.674,79.697z"/>
	</g>
	<g>
		<defs>
			<path id="SVGID_3_" d="M451.859,26.216h186.213c20.568,0,37.243,16.674,37.243,37.243v186.212
				c0,20.569-16.675,37.243-37.243,37.243H451.859c-20.569,0-37.243-16.674-37.243-37.243V63.459
				C414.616,42.891,431.29,26.216,451.859,26.216z"/>
		</defs>
		<clipPath id="SVGID_4_">
			<use xlink:href="#SVGID_3_"  overflow="visible"/>
		</clipPath>
		<path id="path4278_9_" display="none" clip-path="url(#SVGID_4_)" fill="#0075B2" d="M537.028,183.998
			c0,0-8.346,27.866-9.236,32.383c-0.42,2.134-0.545,7.245-2.681,12.066c-3.093,6.982-8.789,21.154-8.789,21.154
			s-10.628,0.44-15.94,0.298c-4.131-0.11-12.364-0.894-12.364-0.894s0.027,1.556-0.447,2.085c-1.361,1.522-3.962,1.069-5.81,1.937
			c-2.806,1.318-5.048,3.69-7.896,4.917c-1.98,0.852-4.104,1.738-6.257,1.638c-1.742-0.08-4.136-0.228-4.916-1.787
			c-0.767-1.531,0.51-3.512,1.49-4.917c2.028-2.907,8.491-6.406,8.491-6.406s-0.318-14.851,0.596-22.197
			c0.98-7.877,4.145-15.372,5.214-23.239c0.542-3.99-0.803-8.289,0.596-12.066c2.531-6.837,9.059-11.429,13.407-17.281
			c1.891-2.543,3.482-5.312,5.512-7.746"/>
		<path id="path4278_8_" display="none" clip-path="url(#SVGID_4_)" fill="#0075B2" d="M502.346,163.943
			c5.062-6.068,17.058-17.579,17.058-17.579c2.458-1.639,1.117-3.277,1.117-3.277s-1.22-1.926-1.639-2.979
			c-0.437-1.097-0.386-2.361-0.894-3.426c-0.505-1.058-0.298-1.851-1.341-2.383c-1.352-0.689-2.874,0.396-3.725-0.596
			c-1.164-1.356-0.482-4.549,0.446-5.959c1.498-2.273,3.719-3.823,4.979-6.517c1.214-2.595,0.856-6.22,0.559-8.777
			c-0.254-2.18-1.912-7.424-1.018-13.383c0.894-5.958,4.271-7.523,6.853-10.031c2.697-2.619,4.866-3.153,6.952-4.345
			c2.085-1.192,4.171,1.639,6.107,1.639s2.545-1.403,2.545-1.403s0.24-1.51,0.286-2.619l0,0c0.159-3.917-1.717-5.522-1.469-8.257
			c0.729-8.062,4.171-4.898,4.001-7.981c-0.103-1.856-3.253-1.496-3.129-4.618c0.119-2.988,3.43-5.884,6.598-5.64
			c6.417,0.496,5.207,5.051,5.512,6.768c8.179-0.519,13.119,4.466,12.918,10.044c-0.417,11.576-4.958,14.729-5.512,16.089
			c-0.319,0.783-0.675,2.339,0.148,2.533c1.438,0.337,4.292,0.303,7.449,1.639c1.104,0.468,1.393,1.327,3.277,1.49
			c2.023,0.175,4.215-0.21,5.958,1.277c1.744,1.487,2.491,1.685,3.874,1.702c3.319,0.042,5.659,2.486,9.045,3.193
			c5.637,1.176,11.004,0.866,17.259,0.766c6.311-0.101,12.534-2.101,18.834-2.469c2.604-0.152,5.5,0.482,7.811,0.511
			c3.045,0.038,4.581,0.198,8.108-0.724c1.204-0.314,3.298-2.335,5.384-2.171c2.259,0.178,4.321,2.234,4.321,2.234
			s0.784-1.865,1.872-1.745c1.431,0.158,2.086,2.298,2.086,2.298s15.109-3.532,29.41-7.406c14.302-3.873,28.751-8.193,44.393-13.705
			c15.643-5.512,24.433-11.62,24.433-11.62s0.58,5.305-3.873,7.597c-13.925,7.166-33.368,13.955-49.607,19.068
			c-16.227,5.109-43.413,11.297-43.413,11.297s-0.28,2.889-1.403,3.302c-0.694,0.256-1.985-0.993-1.985-0.993
			s-4.877,2.933-7.573,2.855c-2.037-0.059-5.586-2.483-5.586-2.483s-16.908,5.902-21.229,5.711
			c-0.236-0.717-0.124-1.104-0.661-1.289c-0.536-0.186-1.721-0.168-3.063-0.077c-0.2,5.397-0.173,8.771,1.738,20.732
			c0.05,3.022-0.869,7.076-0.869,7.076s-6.078-0.572-8.566-0.248c-0.253,3.304-1.861,4.345-1.861,4.345h-22.966
			c0,0-4.411-0.913-5.463-1.613c-1.061-0.707-1.276-2.019-3.228-2.483c-1.951,1.274-7.821,1.49-7.821,1.49s2.167,3.257,2.359,9.311
			c1.433,7.171,6.466,10,10.304,14.649c4.752,5.753,11.623,10.32,16.139,16.262c4.625,6.085,8.365,9.514,11.173,19.738
			c0.672,2.451-0.923,4.099,0.869,7.573c2.098,4.07,3.107,8.842,4.345,13.035c3.04,10.306,3.103,19.629,3.103,19.629
			c3.152,1.614,10.84,4.45,12.619,5.954c0.975,0.824,0.276,4-1.014,4.924c-1.777,1.271-4.478,0.782-6.662,0.725
			c-6.164-0.16-6.802-0.805-10.271-1.238c-3.058-0.383-5.797-4.246-7.978-5.714c-2.454-1.651-3.527,1.864-3.527,1.864
			s-9.165-4.552-14.437-4.618c-6.726-0.083-10.572-15.497-10.572-15.497s-13.493-1.221-17.15-10.573
			c-1.216-3.111-4.351-10.151-5.81-12.514c-2.409-3.902-7.896-11.619-7.896-11.619"/>
		<path id="path4278_7_" clip-path="url(#SVGID_4_)" fill="#CF232C" d="M527.587,77.958c0.16-3.917-1.716-5.521-1.469-8.257
			c0.729-8.062,4.172-4.898,4.002-7.981c-0.103-1.856-3.253-1.496-3.129-4.618c0.119-2.988,3.43-5.885,6.598-5.64
			c6.416,0.496,5.206,5.051,5.512,6.767c8.179-0.519,13.119,4.466,12.918,10.045c-0.417,11.576-4.958,14.729-5.512,16.089
			c-0.319,0.783-0.675,2.339,0.148,2.533c1.438,0.337,3.668,1.145,6.824,2.48c1.105,0.468,2.018,0.484,3.901,0.648
			c2.024,0.175,3.643,0.798,5.386,2.285c1.744,1.487,3.017,1.449,4.399,1.467c3.319,0.042,5.706,1.714,9.092,2.42
			c5.638,1.177,11.005,0.866,17.259,0.766c6.311-0.101,12.534-2.101,18.835-2.469c2.604-0.152,5.5,0.482,7.811,0.511
			c3.045,0.039,4.581,0.198,8.107-0.723c1.205-0.314,3.298-2.335,5.384-2.171c2.26,0.178,5.097,2.372,5.097,2.372
			s0.762-1.799,1.85-1.679c1.431,0.158,2.708,1.771,2.708,1.771s13.735-3.208,28.036-7.082c14.301-3.873,28.751-8.193,44.393-13.706
			c15.642-5.512,24.432-11.619,24.432-11.619s0.581,5.305-3.873,7.597c-13.924,7.166-33.368,13.955-49.607,19.068
			c-16.226,5.109-43.412,11.297-43.412,11.297s-0.281,2.889-1.403,3.302c-0.694,0.256-1.986-0.993-1.986-0.993
			s-4.739,1.789-7.437,1.711c-2.036-0.059-5.722-1.339-5.722-1.339s-16.908,5.902-21.229,5.711
			c-0.237-0.717-0.124-1.104-0.661-1.289c-0.536-0.186-1.722-0.168-3.063-0.077c-0.2,5.397-0.174,8.771,1.737,20.732
			c0.051,3.022-0.868,7.076-0.868,7.076s-6.078-0.572-8.566-0.248c-0.253,3.304-1.862,4.345-1.862,4.345l-22.586-3.048
			c0,0-4.163-0.458-5.214-1.158c-1.062-0.707-1.905,0.574-3.855,0.109c-1.951,1.274-7.821,1.49-7.821,1.49s2.167,3.257,2.358,9.311
			c1.434,7.171,6.466,10.001,10.304,14.65c4.752,5.753,11.623,10.32,16.139,16.262c4.625,6.085,8.366,9.514,11.174,19.738
			c0.672,2.451-0.923,4.099,0.868,7.573c2.099,4.07,3.108,8.843,4.346,13.035c3.039,10.306,3.227,22.594,3.227,22.594
			c3.153,1.614,11.058,4.131,12.837,5.636c0.975,0.824,0.396,2.801-0.894,3.725c-1.778,1.271-5.115,0.951-7.3,0.894
			c-6.165-0.16-6.81-1.652-10.279-2.085c-3.058-0.383-0.824-5.155-3.006-6.624c-2.454-1.651-8.316,2.005-8.316,2.005
			s-10.454,2.404-15.726,2.338c-6.726-0.083-19.987-2.316-19.987-2.316s-2.789-21.358-6.445-30.71
			c-1.217-3.111-4.351-10.151-5.81-12.514c-2.409-3.902-7.896-11.619-7.896-11.619s-8.346,19.168-9.236,23.686
			c-0.421,2.134-0.546,7.245-2.682,12.066c-3.092,6.982-8.789,21.154-8.789,21.154s-10.628,0.44-15.94,0.298
			c-4.13-0.11-12.364-0.894-12.364-0.894s0.027,1.556-0.446,2.085c-1.362,1.521-3.963,1.069-5.81,1.937
			c-2.807,1.319-5.049,3.691-7.896,4.917c-1.979,0.852-4.103,1.738-6.257,1.638c-1.741-0.08-4.136-0.228-4.915-1.788
			c-0.767-1.531,0.51-3.511,1.489-4.916c2.029-2.907,8.491-6.406,8.491-6.406s-0.317-14.851,0.596-22.197
			c0.98-7.878,4.146-15.372,5.215-23.239c0.541-3.99-0.803-8.29,0.596-12.066c2.531-6.837,9.059-11.429,13.407-17.281
			c1.89-2.543,3.481-5.312,5.512-7.746c5.062-6.067,17.058-17.579,17.058-17.579c2.457-1.639,1.117-3.277,1.117-3.277
			s-1.22-1.926-1.639-2.979c-0.438-1.097-0.386-2.361-0.895-3.426c-0.504-1.058-0.297-1.851-1.341-2.384
			c-1.351-0.689-2.873,0.396-3.724-0.596c-1.164-1.357-0.482-4.549,0.446-5.959c1.498-2.273,3.718-3.823,4.979-6.518
			c1.214-2.594,0.856-6.219,0.559-8.777c-0.254-2.179-1.912-7.424-1.018-13.382c0.894-5.958,4.27-7.523,6.853-10.031
			c2.697-2.619,4.866-3.153,6.952-4.345c2.085-1.192,4.171,1.639,6.107,1.639s2.545-1.403,2.545-1.403
			S527.542,79.067,527.587,77.958L527.587,77.958z"/>
		<path id="path4278_6_" clip-path="url(#SVGID_4_)" fill="#DFDFDE" d="M533.674,79.697c0.16-3.917-1.716-5.521-1.468-8.257
			c0.729-8.062,4.171-4.898,4.001-7.981c-0.103-1.856-3.253-1.496-3.129-4.618c0.119-2.987,3.43-5.884,6.598-5.639
			c6.416,0.496,5.207,5.051,5.512,6.767c8.179-0.519,13.119,4.466,12.918,10.045c-0.417,11.576-4.958,14.729-5.512,16.089
			c-0.319,0.783-0.675,2.339,0.148,2.533c1.438,0.337,4.292,0.303,7.449,1.639c1.104,0.467,1.393,1.326,3.277,1.49
			c2.023,0.175,4.215-0.21,5.958,1.277c1.744,1.487,2.49,1.685,3.874,1.702c3.318,0.042,5.659,2.486,9.044,3.192
			c5.638,1.177,11.005,0.866,17.26,0.766c6.311-0.101,12.534-2.101,18.834-2.469c2.604-0.152,5.5,0.482,7.811,0.511
			c3.045,0.039,4.581,0.198,8.108-0.723c1.204-0.314,3.298-2.335,5.384-2.171c2.259,0.178,4.321,2.234,4.321,2.234
			s0.784-1.865,1.872-1.745c1.431,0.158,2.086,2.298,2.086,2.298s15.109-3.532,29.41-7.406c14.302-3.873,28.751-8.193,44.393-13.706
			c15.643-5.512,24.433-11.619,24.433-11.619s0.58,5.305-3.873,7.597c-13.925,7.166-33.368,13.955-49.607,19.068
			c-16.227,5.109-43.413,11.297-43.413,11.297s-0.28,2.889-1.403,3.302c-0.694,0.256-1.985-0.993-1.985-0.993
			s-4.877,2.933-7.573,2.855c-2.037-0.059-5.586-2.483-5.586-2.483s-16.908,5.902-21.229,5.711
			c-0.236-0.717-0.124-1.104-0.661-1.289c-0.536-0.186-1.721-0.168-3.063-0.077c-0.2,5.397-0.173,8.771,1.738,20.732
			c0.05,3.022-0.869,7.076-0.869,7.076s-6.078-0.572-8.566-0.248c-0.253,3.304-1.861,4.345-1.861,4.345h-22.967
			c0,0-4.411-0.913-5.462-1.614c-1.061-0.707-1.276-2.018-3.228-2.483c-1.951,1.274-7.821,1.49-7.821,1.49s2.167,3.257,2.359,9.311
			c1.433,7.171,6.466,10.001,10.304,14.649c4.752,5.754,11.622,10.32,16.139,16.262c4.625,6.086,8.365,9.514,11.173,19.738
			c0.672,2.451-0.923,4.099,0.869,7.573c2.098,4.07,3.107,8.843,4.345,13.035c3.04,10.306,3.228,22.594,3.228,22.594
			c3.152,1.614,11.057,4.131,12.836,5.636c0.976,0.824,0.396,2.801-0.894,3.725c-1.777,1.271-5.115,0.951-7.3,0.894
			c-6.164-0.16-6.81-1.652-10.278-2.085c-3.059-0.383-7.354,0.574-9.534-0.895c-2.455-1.651-1.788-3.724-1.788-3.724
			s-10.52,0.959-15.791,0.893c-6.726-0.083-20.111-1.638-20.111-1.638s-2.6-20.591-6.257-29.943
			c-1.216-3.111-4.351-10.151-5.81-12.514c-2.409-3.902-7.896-11.619-7.896-11.619s-8.346,19.168-9.236,23.686
			c-0.42,2.134-0.545,7.245-2.681,12.066c-3.093,6.982-8.789,21.154-8.789,21.154s-10.628,0.44-15.94,0.298
			c-4.131-0.11-12.364-0.894-12.364-0.894s0.027,1.556-0.447,2.085c-1.361,1.521-3.962,1.069-5.81,1.937
			c-2.806,1.319-5.048,3.691-7.896,4.917c-1.98,0.852-4.104,1.738-6.257,1.638c-1.742-0.08-4.136-0.227-4.916-1.787
			c-0.767-1.531,0.51-3.512,1.49-4.916c2.028-2.907,8.491-6.406,8.491-6.406s-0.318-14.851,0.596-22.197
			c0.979-7.878,4.145-15.372,5.214-23.239c0.542-3.99-0.803-8.29,0.596-12.066c2.531-6.837,9.059-11.429,13.407-17.281
			c1.891-2.543,3.482-5.312,5.512-7.746c5.062-6.067,17.058-17.579,17.058-17.579c2.458-1.639,1.117-3.277,1.117-3.277
			s-1.22-1.927-1.639-2.979c-0.438-1.097-0.386-2.361-0.894-3.427c-0.505-1.058-0.298-1.851-1.341-2.383
			c-1.352-0.689-2.874,0.396-3.725-0.596c-1.164-1.356-0.482-4.549,0.446-5.958c1.498-2.273,3.719-3.823,4.979-6.518
			c1.214-2.595,0.856-6.219,0.559-8.777c-0.254-2.179-1.912-7.424-1.018-13.382c0.894-5.958,4.271-7.523,6.853-10.031
			c2.697-2.619,4.866-3.153,6.952-4.345c2.085-1.192,4.171,1.639,6.107,1.639s2.545-1.403,2.545-1.403
			S533.629,80.807,533.674,79.697L533.674,79.697z"/>
	</g>
</g>
<g>
	<g id="use3647_2_" transform="translate(-754.506, 354.066)">
		
			<radialGradient id="rect4338_7_" cx="1143.627" cy="63.9087" r="152.074" gradientTransform="matrix(0.8571 0 0 -0.8571 -435.2856 501.5713)" gradientUnits="userSpaceOnUse">
			<stop  offset="0" style="stop-color:#555555"/>
			<stop  offset="1" style="stop-color:#222222"/>
		</radialGradient>
		<path id="rect4338_3_" fill="url(#rect4338_7_)" d="M451.859,316.443h186.213c20.568,0,37.243,16.674,37.243,37.243v186.212
			c0,20.569-16.675,37.243-37.243,37.243H451.859c-20.569,0-37.243-16.674-37.243-37.243V353.687
			C414.616,333.117,431.29,316.443,451.859,316.443z"/>
	</g>
	<g id="use3649_3_" transform="translate(-754.506, 354.066)">
		<path id="path4278-4_5_" fill="#212121" d="M533.674,369.924c0.159-3.917-1.716-5.521-1.468-8.257
			c0.729-8.062,4.171-4.898,4.001-7.98c-0.103-1.856-3.253-1.497-3.129-4.618c0.119-2.987,3.43-5.885,6.598-5.64
			c6.416,0.495,5.207,5.052,5.512,6.767c8.179-0.519,13.118,4.467,12.918,10.045c-0.417,11.576-4.958,14.729-5.512,16.09
			c-0.319,0.783-0.675,2.339,0.148,2.532c1.438,0.338,4.292,0.303,7.449,1.639c1.104,0.467,1.393,1.326,3.277,1.489
			c2.023,0.176,4.215-0.21,5.958,1.277c1.744,1.487,2.49,1.685,3.874,1.702c3.318,0.042,5.659,2.486,9.044,3.192
			c5.638,1.177,11.005,0.866,17.26,0.767c6.311-0.102,12.534-2.102,18.834-2.469c2.604-0.152,5.5,0.481,7.811,0.51
			c3.045,0.039,4.581,0.198,8.108-0.723c1.204-0.314,3.298-2.335,5.384-2.171c2.259,0.178,4.321,2.234,4.321,2.234
			s0.784-1.865,1.872-1.745c1.431,0.157,2.086,2.298,2.086,2.298s15.109-3.532,29.41-7.405c14.302-3.873,28.751-8.193,44.393-13.705
			c15.643-5.513,24.433-11.62,24.433-11.62s0.58,5.306-3.873,7.598c-13.925,7.166-33.368,13.955-49.607,19.068
			c-16.227,5.108-43.413,11.297-43.413,11.297s-0.279,2.889-1.402,3.302c-0.695,0.256-1.986-0.993-1.986-0.993
			s-4.877,2.934-7.573,2.855c-2.037-0.059-5.586-2.482-5.586-2.482s-16.908,5.902-21.229,5.71c-0.236-0.716-0.124-1.104-0.66-1.289
			c-0.537-0.185-1.722-0.168-3.064-0.076c-0.2,5.397-0.173,8.771,1.738,20.731c0.051,3.022-0.869,7.076-0.869,7.076
			s-6.077-0.572-8.566-0.248c-0.253,3.304-1.861,4.345-1.861,4.345h-22.967c0,0-4.411-0.913-5.462-1.614
			c-1.061-0.706-1.276-2.018-3.228-2.482c-1.951,1.273-7.821,1.49-7.821,1.49s2.168,3.257,2.359,9.311
			c1.433,7.171,6.466,10.001,10.304,14.648c4.752,5.755,11.623,10.321,16.139,16.263c4.625,6.086,8.365,9.514,11.173,19.738
			c0.672,2.45-0.923,4.1,0.869,7.573c2.098,4.07,3.107,8.843,4.345,13.035c3.041,10.306,3.228,22.594,3.228,22.594
			c3.152,1.613,11.057,4.131,12.836,5.635c0.976,0.825,0.396,2.803-0.894,3.726c-1.777,1.271-5.115,0.951-7.3,0.893
			c-6.163-0.16-6.81-1.651-10.278-2.085c-3.059-0.383-7.354,0.575-9.534-0.894c-2.455-1.652-1.788-3.725-1.788-3.725
			s-10.52,0.96-15.791,0.894c-6.726-0.083-20.111-1.638-20.111-1.638s-2.6-20.591-6.257-29.942
			c-1.216-3.112-4.351-10.151-5.81-12.515c-2.409-3.902-7.896-11.619-7.896-11.619s-8.346,19.169-9.236,23.686
			c-0.42,2.135-0.545,7.244-2.681,12.067c-3.093,6.98-8.789,21.152-8.789,21.152s-10.628,0.44-15.94,0.299
			c-4.131-0.11-12.364-0.895-12.364-0.895s0.027,1.557-0.447,2.086c-1.361,1.521-3.962,1.068-5.81,1.937
			c-2.806,1.319-5.048,3.69-7.896,4.916c-1.98,0.854-4.104,1.739-6.257,1.639c-1.742-0.08-4.136-0.228-4.916-1.787
			c-0.767-1.531,0.51-3.512,1.49-4.917c2.028-2.907,8.491-6.405,8.491-6.405s-0.318-14.851,0.596-22.196
			c0.979-7.878,4.145-15.372,5.214-23.239c0.542-3.99-0.803-8.29,0.596-12.067c2.531-6.836,9.059-11.429,13.407-17.279
			c1.891-2.545,3.482-5.313,5.512-7.746c5.062-6.068,17.058-17.579,17.058-17.579c2.458-1.639,1.117-3.277,1.117-3.277
			s-1.22-1.927-1.639-2.979c-0.437-1.097-0.386-2.361-0.894-3.427c-0.505-1.058-0.297-1.851-1.341-2.384
			c-1.352-0.689-2.874,0.396-3.725-0.596c-1.164-1.356-0.482-4.549,0.447-5.959c1.498-2.272,3.718-3.822,4.978-6.518
			c1.214-2.594,0.857-6.219,0.559-8.776c-0.254-2.179-1.911-7.424-1.018-13.383c0.894-5.958,4.271-7.522,6.853-10.03
			c2.697-2.619,4.866-3.153,6.952-4.345c2.085-1.192,4.171,1.639,6.107,1.639s2.545-1.403,2.545-1.403
			S533.629,371.033,533.674,369.924L533.674,369.924z"/>
	</g>
	<g>
		<defs>
			<path id="SVGID_5_" d="M451.859,316.443h186.213c20.568,0,37.243,16.674,37.243,37.243v186.212
				c0,20.569-16.675,37.243-37.243,37.243H451.859c-20.569,0-37.243-16.674-37.243-37.243V353.687
				C414.616,333.117,431.29,316.443,451.859,316.443z"/>
		</defs>
		<clipPath id="SVGID_6_">
			<use xlink:href="#SVGID_5_"  overflow="visible"/>
		</clipPath>
		<path id="path4278_13_" clip-path="url(#SVGID_6_)" fill="#0075B2" d="M537.028,474.225c0,0-8.346,27.865-9.236,32.383
			c-0.42,2.134-0.545,7.244-2.681,12.066c-3.093,6.981-8.789,21.153-8.789,21.153s-10.628,0.44-15.94,0.298
			c-4.131-0.11-12.364-0.894-12.364-0.894s0.027,1.556-0.447,2.085c-1.361,1.522-3.962,1.069-5.81,1.938
			c-2.806,1.318-5.048,3.69-7.896,4.916c-1.98,0.853-4.104,1.738-6.257,1.639c-1.742-0.08-4.136-0.228-4.916-1.787
			c-0.767-1.531,0.51-3.512,1.49-4.917c2.028-2.907,8.491-6.406,8.491-6.406s-0.318-14.851,0.596-22.196
			c0.98-7.878,4.145-15.372,5.214-23.239c0.542-3.99-0.803-8.289,0.596-12.066c2.531-6.837,9.059-11.429,13.407-17.28
			c1.891-2.544,3.482-5.312,5.512-7.746"/>
		<path id="path4278_12_" clip-path="url(#SVGID_6_)" fill="#0075B2" d="M502.346,454.17c5.062-6.068,17.058-17.579,17.058-17.579
			c2.458-1.639,1.117-3.277,1.117-3.277s-1.22-1.926-1.639-2.979c-0.437-1.097-0.386-2.36-0.894-3.426
			c-0.505-1.059-0.298-1.852-1.341-2.384c-1.352-0.689-2.874,0.396-3.725-0.596c-1.164-1.356-0.482-4.55,0.446-5.959
			c1.498-2.273,3.719-3.823,4.979-6.518c1.214-2.595,0.856-6.22,0.559-8.776c-0.254-2.18-1.912-7.424-1.018-13.383
			c0.894-5.959,4.271-7.523,6.853-10.031c2.697-2.619,4.866-3.152,6.952-4.345c2.085-1.191,4.171,1.639,6.107,1.639
			s2.545-1.402,2.545-1.402s0.24-1.511,0.286-2.619l0,0c0.159-3.917-1.717-5.522-1.469-8.258c0.729-8.062,4.171-4.897,4.001-7.98
			c-0.103-1.856-3.253-1.496-3.129-4.618c0.119-2.987,3.43-5.884,6.598-5.64c6.417,0.496,5.207,5.052,5.512,6.768
			c8.179-0.519,13.119,4.467,12.918,10.045c-0.417,11.576-4.958,14.729-5.512,16.089c-0.319,0.783-0.675,2.339,0.148,2.532
			c1.438,0.338,4.292,0.303,7.449,1.639c1.104,0.468,1.393,1.327,3.277,1.49c2.023,0.175,4.215-0.21,5.958,1.276
			c1.744,1.487,2.491,1.686,3.874,1.702c3.319,0.042,5.659,2.486,9.045,3.193c5.637,1.176,11.004,0.865,17.259,0.766
			c6.311-0.102,12.534-2.101,18.834-2.469c2.604-0.152,5.5,0.482,7.811,0.511c3.045,0.038,4.581,0.198,8.108-0.724
			c1.204-0.314,3.298-2.335,5.384-2.171c2.259,0.178,4.321,2.234,4.321,2.234s0.784-1.864,1.872-1.745
			c1.431,0.158,2.086,2.299,2.086,2.299s15.109-3.532,29.41-7.406c14.302-3.873,28.751-8.192,44.393-13.705
			c15.643-5.512,24.433-11.619,24.433-11.619s0.58,5.305-3.873,7.597c-13.925,7.166-33.368,13.955-49.607,19.068
			c-16.227,5.109-43.413,11.297-43.413,11.297s-0.28,2.89-1.403,3.303c-0.694,0.256-1.985-0.993-1.985-0.993
			s-4.877,2.933-7.573,2.855c-2.037-0.059-5.586-2.483-5.586-2.483s-16.908,5.902-21.229,5.711
			c-0.236-0.717-0.124-1.104-0.661-1.289c-0.536-0.186-1.721-0.169-3.063-0.077c-0.2,5.397-0.173,8.771,1.738,20.732
			c0.05,3.022-0.869,7.075-0.869,7.075s-6.078-0.571-8.566-0.248c-0.253,3.304-1.861,4.345-1.861,4.345h-22.966
			c0,0-4.411-0.913-5.463-1.613c-1.061-0.707-1.276-2.019-3.228-2.483c-1.951,1.274-7.821,1.49-7.821,1.49s2.167,3.257,2.359,9.311
			c1.433,7.172,6.466,10.001,10.304,14.649c4.752,5.754,11.623,10.32,16.139,16.263c4.625,6.085,8.365,9.514,11.173,19.738
			c0.672,2.45-0.923,4.099,0.869,7.573c2.098,4.069,3.107,8.842,4.345,13.034c3.04,10.306,3.103,19.63,3.103,19.63
			c3.152,1.614,10.84,4.449,12.619,5.954c0.975,0.824,0.276,4-1.014,4.924c-1.777,1.271-4.478,0.781-6.662,0.725
			c-6.164-0.16-6.802-0.806-10.271-1.238c-3.058-0.383-5.797-4.246-7.978-5.714c-2.454-1.651-3.527,1.864-3.527,1.864
			s-9.165-4.552-14.437-4.618c-6.726-0.083-10.572-15.497-10.572-15.497s-13.493-1.221-17.15-10.572
			c-1.216-3.111-4.351-10.151-5.81-12.515c-2.409-3.901-7.896-11.619-7.896-11.619"/>
		<path id="path4278_11_" display="none" clip-path="url(#SVGID_6_)" fill="#CF232C" d="M527.587,368.185
			c0.16-3.917-1.716-5.521-1.469-8.257c0.729-8.062,4.172-4.898,4.002-7.981c-0.103-1.856-3.253-1.496-3.129-4.617
			c0.119-2.988,3.43-5.885,6.598-5.64c6.416,0.495,5.206,5.051,5.512,6.767c8.179-0.519,13.119,4.467,12.918,10.045
			c-0.417,11.576-4.958,14.729-5.512,16.089c-0.319,0.783-0.675,2.34,0.148,2.533c1.438,0.337,3.668,1.145,6.824,2.48
			c1.105,0.468,2.018,0.484,3.901,0.647c2.024,0.176,3.643,0.798,5.386,2.285c1.744,1.486,3.017,1.449,4.399,1.467
			c3.319,0.042,5.706,1.714,9.092,2.42c5.638,1.177,11.005,0.866,17.259,0.766c6.311-0.101,12.534-2.101,18.835-2.469
			c2.604-0.151,5.5,0.482,7.811,0.511c3.045,0.039,4.581,0.198,8.107-0.723c1.205-0.314,3.298-2.335,5.384-2.171
			c2.26,0.178,5.097,2.372,5.097,2.372s0.762-1.799,1.85-1.68c1.431,0.158,2.708,1.771,2.708,1.771s13.735-3.208,28.036-7.081
			s28.751-8.193,44.393-13.706c15.642-5.512,24.432-11.619,24.432-11.619s0.581,5.306-3.873,7.598
			c-13.924,7.166-33.368,13.955-49.607,19.068c-16.226,5.108-43.412,11.297-43.412,11.297s-0.281,2.889-1.403,3.302
			c-0.694,0.256-1.986-0.993-1.986-0.993s-4.739,1.789-7.437,1.711c-2.036-0.059-5.722-1.339-5.722-1.339
			s-16.908,5.902-21.229,5.711c-0.237-0.717-0.124-1.104-0.661-1.289c-0.536-0.186-1.722-0.168-3.063-0.076
			c-0.2,5.397-0.174,8.771,1.737,20.731c0.051,3.022-0.868,7.076-0.868,7.076s-6.078-0.572-8.566-0.248
			c-0.253,3.304-1.862,4.345-1.862,4.345l-22.586-3.048c0,0-4.163-0.458-5.214-1.158c-1.062-0.707-1.905,0.574-3.855,0.109
			c-1.951,1.273-7.821,1.489-7.821,1.489s2.167,3.258,2.358,9.311c1.434,7.172,6.466,10.001,10.304,14.65
			c4.752,5.753,11.623,10.319,16.139,16.262c4.625,6.086,8.366,9.514,11.174,19.738c0.672,2.451-0.923,4.099,0.868,7.573
			c2.099,4.07,3.108,8.843,4.346,13.035c3.039,10.306,3.227,22.594,3.227,22.594c3.153,1.614,11.058,4.131,12.837,5.636
			c0.975,0.824,0.396,2.801-0.894,3.725c-1.778,1.271-5.115,0.95-7.3,0.894c-6.165-0.16-6.81-1.652-10.279-2.085
			c-3.058-0.383-0.824-5.155-3.006-6.624c-2.454-1.651-8.316,2.006-8.316,2.006s-10.454,2.404-15.726,2.338
			c-6.726-0.083-19.987-2.316-19.987-2.316s-2.789-21.358-6.445-30.71c-1.217-3.111-4.351-10.151-5.81-12.514
			c-2.409-3.902-7.896-11.619-7.896-11.619s-8.346,19.168-9.236,23.686c-0.421,2.135-0.546,7.245-2.682,12.066
			c-3.092,6.982-8.789,21.154-8.789,21.154s-10.628,0.44-15.94,0.298c-4.13-0.11-12.364-0.894-12.364-0.894s0.027,1.556-0.446,2.085
			c-1.362,1.521-3.963,1.069-5.81,1.937c-2.807,1.318-5.049,3.69-7.896,4.917c-1.979,0.852-4.103,1.738-6.257,1.638
			c-1.741-0.08-4.136-0.228-4.915-1.787c-0.767-1.531,0.51-3.512,1.489-4.916c2.029-2.907,8.491-6.406,8.491-6.406
			s-0.317-14.852,0.596-22.197c0.98-7.878,4.146-15.372,5.215-23.238c0.541-3.99-0.803-8.29,0.596-12.066
			c2.531-6.838,9.059-11.429,13.407-17.281c1.89-2.543,3.481-5.312,5.512-7.746c5.062-6.067,17.058-17.578,17.058-17.578
			c2.457-1.639,1.117-3.277,1.117-3.277s-1.22-1.927-1.639-2.979c-0.438-1.097-0.386-2.361-0.895-3.427
			c-0.504-1.058-0.297-1.851-1.341-2.384c-1.351-0.689-2.873,0.396-3.724-0.596c-1.164-1.356-0.482-4.549,0.446-5.959
			c1.498-2.272,3.718-3.822,4.979-6.518c1.214-2.594,0.856-6.219,0.559-8.776c-0.254-2.18-1.912-7.424-1.018-13.383
			c0.894-5.958,4.27-7.522,6.853-10.03c2.697-2.619,4.866-3.153,6.952-4.345c2.085-1.192,4.171,1.639,6.107,1.639
			s2.545-1.403,2.545-1.403S527.542,369.294,527.587,368.185L527.587,368.185z"/>
		<path id="path4278_10_" clip-path="url(#SVGID_6_)" fill="#DFDFDE" d="M533.674,369.924c0.16-3.916-1.716-5.521-1.468-8.257
			c0.729-8.062,4.171-4.897,4.001-7.98c-0.103-1.856-3.253-1.496-3.129-4.618c0.119-2.987,3.43-5.885,6.598-5.64
			c6.416,0.496,5.207,5.052,5.512,6.768c8.179-0.519,13.119,4.466,12.918,10.045c-0.417,11.576-4.958,14.729-5.512,16.089
			c-0.319,0.783-0.675,2.339,0.148,2.532c1.438,0.338,4.292,0.303,7.449,1.639c1.104,0.468,1.393,1.326,3.277,1.49
			c2.023,0.175,4.215-0.21,5.958,1.276c1.744,1.487,2.49,1.685,3.874,1.702c3.318,0.042,5.659,2.486,9.044,3.192
			c5.638,1.177,11.005,0.866,17.26,0.767c6.311-0.102,12.534-2.102,18.834-2.469c2.604-0.152,5.5,0.481,7.811,0.511
			c3.045,0.038,4.581,0.197,8.108-0.724c1.204-0.314,3.298-2.335,5.384-2.171c2.259,0.178,4.321,2.234,4.321,2.234
			s0.784-1.864,1.872-1.745c1.431,0.158,2.086,2.299,2.086,2.299s15.109-3.532,29.41-7.406c14.302-3.873,28.751-8.193,44.393-13.705
			c15.643-5.512,24.433-11.619,24.433-11.619s0.58,5.305-3.873,7.597c-13.925,7.166-33.368,13.955-49.607,19.068
			c-16.227,5.109-43.413,11.297-43.413,11.297s-0.28,2.89-1.403,3.302c-0.694,0.256-1.985-0.992-1.985-0.992
			s-4.877,2.933-7.573,2.854c-2.037-0.059-5.586-2.482-5.586-2.482s-16.908,5.902-21.229,5.711
			c-0.236-0.717-0.124-1.104-0.661-1.289c-0.536-0.186-1.721-0.169-3.063-0.077c-0.2,5.397-0.173,8.771,1.738,20.732
			c0.05,3.021-0.869,7.075-0.869,7.075s-6.078-0.571-8.566-0.248c-0.253,3.304-1.861,4.345-1.861,4.345h-22.967
			c0,0-4.411-0.913-5.462-1.613c-1.061-0.707-1.276-2.019-3.228-2.483c-1.951,1.274-7.821,1.49-7.821,1.49s2.167,3.257,2.359,9.311
			c1.433,7.171,6.466,10.001,10.304,14.649c4.752,5.754,11.622,10.32,16.139,16.262c4.625,6.086,8.365,9.515,11.173,19.738
			c0.672,2.451-0.923,4.1,0.869,7.573c2.098,4.07,3.107,8.843,4.345,13.035c3.04,10.306,3.228,22.594,3.228,22.594
			c3.152,1.614,11.057,4.131,12.836,5.636c0.976,0.824,0.396,2.802-0.894,3.725c-1.777,1.271-5.115,0.951-7.3,0.894
			c-6.164-0.16-6.81-1.652-10.278-2.085c-3.059-0.383-7.354,0.574-9.534-0.895c-2.455-1.651-1.788-3.724-1.788-3.724
			s-10.52,0.959-15.791,0.893c-6.726-0.083-20.111-1.638-20.111-1.638s-2.6-20.591-6.257-29.942
			c-1.216-3.111-4.351-10.151-5.81-12.515c-2.409-3.901-7.896-11.619-7.896-11.619s-8.346,19.169-9.236,23.687
			c-0.42,2.134-0.545,7.244-2.681,12.066c-3.093,6.981-8.789,21.153-8.789,21.153s-10.628,0.44-15.94,0.298
			c-4.131-0.11-12.364-0.894-12.364-0.894s0.027,1.556-0.447,2.085c-1.361,1.521-3.962,1.069-5.81,1.937
			c-2.806,1.319-5.048,3.691-7.896,4.917c-1.98,0.853-4.104,1.738-6.257,1.638c-1.742-0.079-4.136-0.227-4.916-1.787
			c-0.767-1.53,0.51-3.512,1.49-4.916c2.028-2.907,8.491-6.406,8.491-6.406s-0.318-14.851,0.596-22.196
			c0.979-7.878,4.145-15.372,5.214-23.239c0.542-3.99-0.803-8.289,0.596-12.066c2.531-6.837,9.059-11.429,13.407-17.28
			c1.891-2.544,3.482-5.312,5.512-7.746c5.062-6.067,17.058-17.579,17.058-17.579c2.458-1.639,1.117-3.277,1.117-3.277
			s-1.22-1.927-1.639-2.979c-0.438-1.097-0.386-2.36-0.894-3.427c-0.505-1.058-0.298-1.851-1.341-2.383
			c-1.352-0.689-2.874,0.396-3.725-0.597c-1.164-1.356-0.482-4.549,0.446-5.958c1.498-2.273,3.719-3.823,4.979-6.518
			c1.214-2.595,0.856-6.22,0.559-8.777c-0.254-2.179-1.912-7.424-1.018-13.382c0.894-5.959,4.271-7.523,6.853-10.031
			c2.697-2.619,4.866-3.153,6.952-4.345c2.085-1.192,4.171,1.639,6.107,1.639s2.545-1.402,2.545-1.402
			S533.629,371.033,533.674,369.924L533.674,369.924z"/>
	</g>
</g>
<g>
	<g id="use3647_3_" transform="translate(-754.506, 354.066)">
		
			<radialGradient id="rect4338_8_" cx="699.9385" cy="63.9087" r="152.074" gradientTransform="matrix(0.8571 0 0 -0.8571 -435.2856 501.5713)" gradientUnits="userSpaceOnUse">
			<stop  offset="0" style="stop-color:#555555"/>
			<stop  offset="1" style="stop-color:#222222"/>
		</radialGradient>
		<path id="rect4338_4_" fill="url(#rect4338_8_)" d="M71.555,316.443h186.213c20.568,0,37.243,16.674,37.243,37.243v186.212
			c0,20.569-16.675,37.243-37.243,37.243H71.555c-20.569,0-37.243-16.674-37.243-37.243V353.687
			C34.312,333.117,50.986,316.443,71.555,316.443z"/>
	</g>
	<g id="use3649_4_" transform="translate(-754.506, 354.066)">
		<path id="path4278-4_6_" fill="#212121" d="M153.37,369.924c0.159-3.917-1.716-5.521-1.468-8.257
			c0.729-8.062,4.171-4.898,4.001-7.98c-0.103-1.856-3.253-1.497-3.129-4.618c0.119-2.987,3.43-5.885,6.598-5.64
			c6.416,0.495,5.207,5.052,5.512,6.767c8.179-0.519,13.118,4.467,12.918,10.045c-0.417,11.576-4.958,14.729-5.512,16.09
			c-0.319,0.783-0.675,2.339,0.148,2.532c1.438,0.338,4.292,0.303,7.449,1.639c1.104,0.467,1.393,1.326,3.277,1.489
			c2.023,0.176,4.215-0.21,5.958,1.277c1.744,1.487,2.49,1.685,3.874,1.702c3.318,0.042,5.659,2.486,9.044,3.192
			c5.638,1.177,11.005,0.866,17.26,0.767c6.311-0.102,12.534-2.102,18.834-2.469c2.604-0.152,5.5,0.481,7.811,0.51
			c3.045,0.039,4.581,0.198,8.108-0.723c1.204-0.314,3.298-2.335,5.384-2.171c2.259,0.178,4.321,2.234,4.321,2.234
			s0.784-1.865,1.872-1.745c1.431,0.157,2.086,2.298,2.086,2.298s15.109-3.532,29.41-7.405c14.302-3.873,28.751-8.193,44.393-13.705
			c15.643-5.513,24.433-11.62,24.433-11.62s0.58,5.306-3.873,7.598c-13.925,7.166-33.368,13.955-49.607,19.068
			c-16.227,5.108-43.413,11.297-43.413,11.297s-0.279,2.889-1.402,3.302c-0.695,0.256-1.986-0.993-1.986-0.993
			s-4.877,2.934-7.573,2.855c-2.037-0.059-5.586-2.482-5.586-2.482s-16.908,5.902-21.229,5.71c-0.236-0.716-0.124-1.104-0.66-1.289
			c-0.537-0.185-1.722-0.168-3.064-0.076c-0.2,5.397-0.173,8.771,1.738,20.731c0.051,3.022-0.869,7.076-0.869,7.076
			s-6.077-0.572-8.566-0.248c-0.253,3.304-1.861,4.345-1.861,4.345h-22.967c0,0-4.411-0.913-5.462-1.614
			c-1.061-0.706-1.276-2.018-3.228-2.482c-1.951,1.273-7.821,1.49-7.821,1.49s2.168,3.257,2.359,9.311
			c1.433,7.171,6.466,10.001,10.304,14.648c4.752,5.755,11.623,10.321,16.139,16.263c4.625,6.086,8.365,9.514,11.173,19.738
			c0.672,2.45-0.923,4.1,0.869,7.573c2.098,4.07,3.107,8.843,4.345,13.035c3.041,10.306,3.228,22.594,3.228,22.594
			c3.152,1.613,11.057,4.131,12.836,5.635c0.976,0.825,0.396,2.803-0.894,3.726c-1.777,1.271-5.115,0.951-7.3,0.893
			c-6.163-0.16-6.81-1.651-10.278-2.085c-3.059-0.383-7.354,0.575-9.534-0.894c-2.455-1.652-1.788-3.725-1.788-3.725
			s-10.52,0.96-15.791,0.894c-6.726-0.083-20.111-1.638-20.111-1.638s-2.6-20.591-6.257-29.942
			c-1.216-3.112-4.351-10.151-5.81-12.515c-2.409-3.902-7.896-11.619-7.896-11.619s-8.346,19.169-9.236,23.686
			c-0.42,2.135-0.545,7.244-2.681,12.067c-3.093,6.98-8.789,21.152-8.789,21.152s-10.628,0.44-15.94,0.299
			c-4.131-0.11-12.364-0.895-12.364-0.895s0.027,1.557-0.447,2.086c-1.361,1.521-3.962,1.068-5.81,1.937
			c-2.806,1.319-5.048,3.69-7.896,4.916c-1.98,0.854-4.104,1.739-6.257,1.639c-1.742-0.08-4.136-0.228-4.916-1.787
			c-0.767-1.531,0.51-3.512,1.49-4.917c2.028-2.907,8.491-6.405,8.491-6.405s-0.318-14.851,0.596-22.196
			c0.979-7.878,4.145-15.372,5.214-23.239c0.542-3.99-0.803-8.29,0.596-12.067c2.531-6.836,9.059-11.429,13.407-17.279
			c1.891-2.545,3.482-5.313,5.512-7.746c5.062-6.068,17.058-17.579,17.058-17.579c2.458-1.639,1.117-3.277,1.117-3.277
			s-1.22-1.927-1.639-2.979c-0.437-1.097-0.386-2.361-0.894-3.427c-0.505-1.058-0.297-1.851-1.341-2.384
			c-1.352-0.689-2.874,0.396-3.725-0.596c-1.164-1.356-0.482-4.549,0.447-5.959c1.498-2.272,3.718-3.822,4.978-6.518
			c1.214-2.594,0.857-6.219,0.559-8.776c-0.254-2.179-1.911-7.424-1.018-13.383c0.894-5.958,4.271-7.522,6.853-10.03
			c2.697-2.619,4.866-3.153,6.952-4.345c2.085-1.192,4.171,1.639,6.107,1.639s2.545-1.403,2.545-1.403
			S153.325,371.033,153.37,369.924L153.37,369.924z"/>
	</g>
	<g>
		<defs>
			<path id="SVGID_7_" d="M71.555,316.443h186.213c20.568,0,37.243,16.674,37.243,37.243v186.212
				c0,20.569-16.675,37.243-37.243,37.243H71.555c-20.569,0-37.243-16.674-37.243-37.243V353.687
				C34.312,333.117,50.986,316.443,71.555,316.443z"/>
		</defs>
		<clipPath id="SVGID_8_">
			<use xlink:href="#SVGID_7_"  overflow="visible"/>
		</clipPath>
		<path id="path4278_18_" display="none" clip-path="url(#SVGID_8_)" fill="#0075B2" d="M156.724,474.225
			c0,0-8.346,27.865-9.236,32.383c-0.42,2.134-0.545,7.244-2.681,12.066c-3.093,6.981-8.789,21.153-8.789,21.153
			s-10.628,0.44-15.94,0.298c-4.131-0.11-12.364-0.894-12.364-0.894s0.027,1.556-0.447,2.085c-1.361,1.522-3.962,1.069-5.81,1.938
			c-2.806,1.318-5.048,3.69-7.896,4.916c-1.98,0.853-4.104,1.738-6.257,1.639c-1.742-0.08-4.136-0.228-4.916-1.787
			c-0.767-1.531,0.51-3.512,1.49-4.917c2.028-2.907,8.491-6.406,8.491-6.406s-0.318-14.851,0.596-22.196
			c0.98-7.878,4.145-15.372,5.214-23.239c0.542-3.99-0.803-8.289,0.596-12.066c2.531-6.837,9.059-11.429,13.407-17.28
			c1.891-2.544,3.482-5.312,5.512-7.746"/>
		<path id="path4278_17_" display="none" clip-path="url(#SVGID_8_)" fill="#0075B2" d="M122.042,454.17
			c5.062-6.068,17.058-17.579,17.058-17.579c2.458-1.639,1.117-3.277,1.117-3.277s-1.22-1.926-1.639-2.979
			c-0.437-1.097-0.386-2.36-0.894-3.426c-0.505-1.059-0.298-1.852-1.341-2.384c-1.352-0.689-2.874,0.396-3.725-0.596
			c-1.164-1.356-0.482-4.55,0.446-5.959c1.498-2.273,3.719-3.823,4.979-6.518c1.214-2.595,0.856-6.22,0.559-8.776
			c-0.254-2.18-1.912-7.424-1.018-13.383c0.894-5.959,4.271-7.523,6.853-10.031c2.697-2.619,4.866-3.152,6.952-4.345
			c2.085-1.191,4.171,1.639,6.107,1.639s2.545-1.402,2.545-1.402s0.24-1.511,0.286-2.619l0,0c0.159-3.917-1.717-5.522-1.469-8.258
			c0.729-8.062,4.171-4.897,4.001-7.98c-0.103-1.856-3.253-1.496-3.129-4.618c0.119-2.987,3.43-5.884,6.598-5.64
			c6.417,0.496,5.207,5.052,5.512,6.768c8.179-0.519,13.119,4.467,12.918,10.045c-0.417,11.576-4.958,14.729-5.512,16.089
			c-0.319,0.783-0.675,2.339,0.148,2.532c1.438,0.338,4.292,0.303,7.449,1.639c1.104,0.468,1.393,1.327,3.277,1.49
			c2.023,0.175,4.215-0.21,5.958,1.276c1.744,1.487,2.491,1.686,3.874,1.702c3.319,0.042,5.659,2.486,9.045,3.193
			c5.637,1.176,11.004,0.865,17.259,0.766c6.311-0.102,12.534-2.101,18.834-2.469c2.604-0.152,5.5,0.482,7.811,0.511
			c3.045,0.038,4.581,0.198,8.108-0.724c1.204-0.314,3.298-2.335,5.384-2.171c2.259,0.178,4.321,2.234,4.321,2.234
			s0.784-1.864,1.872-1.745c1.431,0.158,2.086,2.299,2.086,2.299s15.109-3.532,29.41-7.406c14.302-3.873,28.751-8.192,44.393-13.705
			c15.643-5.512,24.433-11.619,24.433-11.619s0.58,5.305-3.873,7.597c-13.925,7.166-33.368,13.955-49.607,19.068
			c-16.227,5.109-43.413,11.297-43.413,11.297s-0.28,2.89-1.403,3.303c-0.694,0.256-1.985-0.993-1.985-0.993
			s-4.877,2.933-7.573,2.855c-2.037-0.059-5.586-2.483-5.586-2.483s-16.908,5.902-21.229,5.711
			c-0.236-0.717-0.124-1.104-0.661-1.289c-0.536-0.186-1.721-0.169-3.063-0.077c-0.2,5.397-0.173,8.771,1.738,20.732
			c0.05,3.022-0.869,7.075-0.869,7.075s-6.078-0.571-8.566-0.248c-0.253,3.304-1.861,4.345-1.861,4.345H201.99
			c0,0-4.411-0.913-5.463-1.613c-1.061-0.707-1.276-2.019-3.228-2.483c-1.951,1.274-7.821,1.49-7.821,1.49s2.167,3.257,2.359,9.311
			c1.433,7.172,6.466,10.001,10.304,14.649c4.752,5.754,11.623,10.32,16.139,16.263c4.625,6.085,8.365,9.514,11.173,19.738
			c0.672,2.45-0.923,4.099,0.869,7.573c2.098,4.069,3.107,8.842,4.345,13.034c3.04,10.306,3.103,19.63,3.103,19.63
			c3.152,1.614,10.84,4.449,12.619,5.954c0.975,0.824,0.276,4-1.014,4.924c-1.777,1.271-4.478,0.781-6.662,0.725
			c-6.164-0.16-6.802-0.806-10.271-1.238c-3.058-0.383-5.797-4.246-7.978-5.714c-2.454-1.651-3.527,1.864-3.527,1.864
			s-9.165-4.552-14.437-4.618c-6.726-0.083-10.572-15.497-10.572-15.497s-13.493-1.221-17.15-10.572
			c-1.216-3.111-4.351-10.151-5.81-12.515c-2.409-3.901-7.896-11.619-7.896-11.619"/>
		<path id="path4278_15_" display="none" clip-path="url(#SVGID_8_)" fill="#CF232C" d="M147.283,368.185
			c0.16-3.917-1.716-5.521-1.469-8.257c0.729-8.062,4.172-4.898,4.002-7.981c-0.103-1.856-3.253-1.496-3.129-4.617
			c0.119-2.988,3.43-5.885,6.598-5.64c6.416,0.495,5.206,5.051,5.512,6.767c8.179-0.519,13.119,4.467,12.918,10.045
			c-0.417,11.576-4.958,14.729-5.512,16.089c-0.319,0.783-0.675,2.34,0.148,2.533c1.438,0.337,3.668,1.145,6.824,2.48
			c1.105,0.468,2.018,0.484,3.901,0.647c2.024,0.176,3.643,0.798,5.386,2.285c1.744,1.486,3.017,1.449,4.399,1.467
			c3.319,0.042,5.706,1.714,9.092,2.42c5.638,1.177,11.005,0.866,17.259,0.766c6.311-0.101,12.534-2.101,18.835-2.469
			c2.604-0.151,5.5,0.482,7.811,0.511c3.045,0.039,4.581,0.198,8.107-0.723c1.205-0.314,3.298-2.335,5.384-2.171
			c2.26,0.178,5.097,2.372,5.097,2.372s0.762-1.799,1.85-1.68c1.431,0.158,2.708,1.771,2.708,1.771s13.735-3.208,28.036-7.081
			s28.751-8.193,44.393-13.706c15.642-5.512,24.432-11.619,24.432-11.619s0.581,5.306-3.873,7.598
			c-13.924,7.166-33.368,13.955-49.607,19.068c-16.226,5.108-43.412,11.297-43.412,11.297s-0.281,2.889-1.403,3.302
			c-0.694,0.256-1.986-0.993-1.986-0.993s-4.739,1.789-7.437,1.711c-2.036-0.059-5.722-1.339-5.722-1.339
			s-16.908,5.902-21.229,5.711c-0.237-0.717-0.124-1.104-0.661-1.289c-0.536-0.186-1.722-0.168-3.063-0.076
			c-0.2,5.397-0.174,8.771,1.737,20.731c0.051,3.022-0.868,7.076-0.868,7.076s-6.078-0.572-8.566-0.248
			c-0.253,3.304-1.862,4.345-1.862,4.345l-22.586-3.048c0,0-4.163-0.458-5.214-1.158c-1.062-0.707-1.905,0.574-3.855,0.109
			c-1.951,1.273-7.821,1.489-7.821,1.489s2.167,3.258,2.358,9.311c1.434,7.172,6.466,10.001,10.304,14.65
			c4.752,5.753,11.623,10.319,16.139,16.262c4.625,6.086,8.366,9.514,11.174,19.738c0.672,2.451-0.923,4.099,0.868,7.573
			c2.099,4.07,3.108,8.843,4.346,13.035c3.039,10.306,3.227,22.594,3.227,22.594c3.153,1.614,11.058,4.131,12.837,5.636
			c0.975,0.824,0.396,2.801-0.894,3.725c-1.778,1.271-5.115,0.95-7.3,0.894c-6.165-0.16-6.81-1.652-10.279-2.085
			c-3.058-0.383-0.824-5.155-3.006-6.624c-2.454-1.651-8.316,2.006-8.316,2.006s-10.454,2.404-15.726,2.338
			c-6.726-0.083-19.987-2.316-19.987-2.316s-2.789-21.358-6.445-30.71c-1.217-3.111-4.351-10.151-5.81-12.514
			c-2.409-3.902-7.896-11.619-7.896-11.619s-8.346,19.168-9.236,23.686c-0.421,2.135-0.546,7.245-2.682,12.066
			c-3.092,6.982-8.789,21.154-8.789,21.154s-10.628,0.44-15.94,0.298c-4.13-0.11-12.364-0.894-12.364-0.894s0.027,1.556-0.446,2.085
			c-1.362,1.521-3.963,1.069-5.81,1.937c-2.807,1.318-5.049,3.69-7.896,4.917c-1.979,0.852-4.103,1.738-6.257,1.638
			c-1.741-0.08-4.136-0.228-4.915-1.787c-0.767-1.531,0.51-3.512,1.489-4.916c2.029-2.907,8.491-6.406,8.491-6.406
			s-0.317-14.852,0.596-22.197c0.98-7.878,4.146-15.372,5.215-23.238c0.541-3.99-0.803-8.29,0.596-12.066
			c2.531-6.838,9.059-11.429,13.407-17.281c1.89-2.543,3.481-5.312,5.512-7.746c5.062-6.067,17.058-17.578,17.058-17.578
			c2.457-1.639,1.117-3.277,1.117-3.277s-1.22-1.927-1.639-2.979c-0.438-1.097-0.386-2.361-0.895-3.427
			c-0.504-1.058-0.297-1.851-1.341-2.384c-1.351-0.689-2.873,0.396-3.724-0.596c-1.164-1.356-0.482-4.549,0.446-5.959
			c1.498-2.272,3.718-3.822,4.979-6.518c1.214-2.594,0.856-6.219,0.559-8.776c-0.254-2.18-1.912-7.424-1.018-13.383
			c0.894-5.958,4.27-7.522,6.853-10.03c2.697-2.619,4.866-3.153,6.952-4.345c2.085-1.192,4.171,1.639,6.107,1.639
			s2.545-1.403,2.545-1.403S147.238,369.294,147.283,368.185L147.283,368.185z"/>
		<g id="path4278_14_" clip-path="url(#SVGID_8_)">
			<path fill="#CE242B" d="M85.033,549.706c-0.152,0-0.303-0.004-0.455-0.011c-1.948-0.088-5.579-0.253-7.035-3.166
				c-1.478-2.948,0.653-5.999,1.676-7.466c1.753-2.513,5.85-5.137,8.017-6.415c-0.055-3.994-0.124-14.93,0.639-21.064
				c0.522-4.197,1.633-8.271,2.707-12.211c1.033-3.788,2.009-7.367,2.511-11.057c0.189-1.391,0.105-2.903,0.017-4.505
				c-0.146-2.64-0.297-5.369,0.711-8.093c1.81-4.889,5.341-8.614,8.756-12.217c1.817-1.918,3.534-3.729,4.989-5.687
				c0.729-0.98,1.408-1.991,2.126-3.062c1.072-1.596,2.18-3.245,3.472-4.795c5.092-6.104,16.752-17.308,17.247-17.781l0.16-0.153
				l0.185-0.123c0.084-0.057,0.153-0.107,0.209-0.152c-0.406-0.657-1.266-2.095-1.667-3.1c-0.297-0.746-0.425-1.461-0.538-2.091
				c-0.084-0.474-0.164-0.921-0.291-1.186c-0.221-0.464-0.35-0.877-0.442-1.202c-0.109,0.014-0.215,0.025-0.318,0.035
				c-0.317,0.03-0.626,0.056-0.918,0.056c-1.569,0-2.513-0.716-3.027-1.316c-2.057-2.396-1.154-6.82,0.257-8.961
				c0.717-1.089,1.53-1.985,2.316-2.853c0.977-1.077,1.899-2.095,2.485-3.348c0.965-2.063,0.559-5.554,0.34-7.43
				c-0.046-0.395-0.169-1.016-0.313-1.734c-0.542-2.721-1.449-7.272-0.693-12.308c0.855-5.701,3.762-8.162,6.098-10.14
				c0.531-0.449,1.032-0.874,1.485-1.313c2.247-2.183,4.251-3.143,5.861-3.914c0.564-0.27,1.097-0.525,1.593-0.809
				c0.721-0.412,1.505-0.622,2.327-0.622c1.542,0,2.82,0.734,3.846,1.324c0.396,0.229,0.996,0.573,1.222,0.61
				c0.047-0.001,0.09-0.006,0.129-0.013c0.065-0.5,0.135-1.129,0.155-1.614c0.066-1.607-0.311-2.711-0.709-3.88
				c-0.429-1.258-0.915-2.685-0.75-4.501c0.4-4.426,1.598-6.411,3.31-7.609c-1.065-0.751-2.555-2.134-2.446-4.863
				c0.168-4.216,4.323-8.055,8.717-8.055c0.191,0,0.381,0.008,0.571,0.022c6.249,0.482,7.431,4.283,7.678,6.76
				c3.952,0.247,7.397,1.718,9.795,4.203c2.217,2.299,3.375,5.293,3.262,8.432c-0.359,9.966-3.606,14.284-5.241,16.386
				c1.541,0.204,3.609,0.554,5.803,1.481c0.653,0.276,1.119,0.619,1.46,0.869c0.425,0.312,0.526,0.387,1.06,0.434
				c0.412,0.035,0.834,0.043,1.257,0.053c1.821,0.04,4.088,0.091,6.106,1.812c1.28,1.092,1.493,1.095,2.284,1.104
				c2.438,0.031,4.389,1.01,6.11,1.874c1.156,0.58,2.247,1.128,3.413,1.371c3.487,0.728,6.838,0.826,9.657,0.826
				c1.492,0,3.013-0.032,4.585-0.064c0.808-0.018,1.63-0.034,2.467-0.048c3.19-0.051,6.365-0.62,9.726-1.222
				c2.92-0.523,5.94-1.064,9.002-1.243c0.326-0.019,0.657-0.027,0.991-0.027c1.401,0,2.775,0.151,4.104,0.298
				c1.054,0.116,2.05,0.226,2.893,0.236l1.03,0.017c0.499,0.01,0.959,0.018,1.405,0.018c1.567,0,2.829-0.107,5.01-0.677
				c0.118-0.047,0.566-0.315,0.894-0.513c1.228-0.738,2.909-1.749,4.878-1.749c0.146,0,0.292,0.006,0.439,0.018
				c1.39,0.109,2.666,0.663,3.674,1.264c0.628-0.479,1.374-0.788,2.224-0.788c0.123,0,0.247,0.007,0.372,0.021
				c1.336,0.147,2.376,0.936,3.113,1.908c4.478-1.066,16.279-3.915,27.458-6.943c16.147-4.373,30.197-8.71,44.215-13.649
				c15.088-5.316,23.753-11.257,23.839-11.316l3.452-2.39l0.458,4.173c0.031,0.286,0.699,7.048-5.214,10.091
				c-11.581,5.96-28.404,12.43-50,19.23c-13.862,4.364-35.887,9.56-41.995,10.978c-0.384,1.457-1.157,3.013-2.711,3.583
				c-0.337,0.124-0.697,0.188-1.069,0.188c-0.706,0-1.376-0.238-1.959-0.559c-1.852,0.979-4.929,2.388-7.285,2.389l-0.18-0.003
				c-1.95-0.057-4.367-1.324-5.845-2.223c-4.053,1.384-16.349,5.456-20.681,5.457c-0.001,0-0.223-0.003-0.327-0.008l-1.196-0.053
				c0.012,3.592,0.37,7.645,1.79,16.527l0.028,0.176l0.003,0.178c0.054,3.284-0.89,7.491-0.931,7.669l-0.485,2.142l-2.187-0.205
				c-0.036-0.004-3.567-0.332-6.216-0.336c-0.746,2.693-2.263,3.812-2.62,4.042l-0.62,0.401h-23.961l-0.251-0.052
				c-1.825-0.378-5.076-1.138-6.341-1.981c-0.685-0.456-1.139-1.007-1.47-1.408c-0.147-0.179-0.254-0.309-0.351-0.406
				c-1.236,0.462-2.757,0.754-4.151,0.938c0.547,1.696,1.048,3.977,1.16,6.814c0.922,4.333,3.388,6.788,6.237,9.624
				c1.165,1.16,2.37,2.359,3.503,3.732c2.116,2.562,4.675,4.876,7.384,7.325c3.088,2.792,6.281,5.68,8.817,9.016
				c0.739,0.972,1.454,1.874,2.146,2.748c3.734,4.712,6.959,8.782,9.447,17.841c0.392,1.429,0.262,2.647,0.158,3.627
				c-0.13,1.223-0.216,2.031,0.522,3.462c1.732,3.36,2.729,7.005,3.694,10.528c0.274,1.002,0.544,1.989,0.827,2.945
				c2.487,8.431,3.121,17.969,3.279,21.683c1.136,0.49,2.562,1.046,3.957,1.588c4.152,1.617,6.766,2.677,8.044,3.758
				c0.923,0.78,1.424,1.977,1.371,3.28c-0.067,1.659-1.019,3.381-2.424,4.387c-1.782,1.274-4.148,1.438-6.011,1.438
				c-0.682,0-1.354-0.025-1.976-0.05c-0.292-0.012-0.572-0.022-0.834-0.029c-4.183-0.108-6.197-0.82-7.815-1.392
				c-0.915-0.323-1.638-0.578-2.707-0.712c-0.435-0.054-0.951-0.079-1.625-0.079c-0.517,0-1.047,0.014-1.578,0.028
				c-0.579,0.016-1.158,0.03-1.726,0.03c-1.874,0-4.016-0.152-5.692-1.281c-1.39-0.935-2.183-2.036-2.596-3.1
				c-3.295,0.268-9.191,0.698-13.041,0.698l-0.578-0.003c-6.776-0.084-19.816-1.59-20.368-1.654l-1.946-0.227l-0.246-1.943
				c-0.025-0.203-2.603-20.392-6.104-29.346c-1.244-3.182-4.315-10.016-5.609-12.111c-1.285-2.081-3.497-5.318-5.239-7.825
				c-2.756,6.498-6.763,16.274-7.312,19.062c-0.084,0.429-0.165,1.091-0.258,1.857c-0.327,2.688-0.822,6.748-2.589,10.738
				c-3.04,6.862-8.698,20.932-8.755,21.073l-0.603,1.498l-1.614,0.067c-0.079,0.003-7.989,0.328-13.557,0.328
				c-0.928,0-1.793-0.009-2.554-0.029c-2.839-0.076-7.468-0.453-10.239-0.695c-0.156,0.383-0.366,0.746-0.644,1.057
				c-1.41,1.575-3.31,1.877-4.836,2.12c-0.698,0.11-1.356,0.215-1.773,0.41c-1.135,0.534-2.225,1.318-3.379,2.148
				c-1.405,1.012-2.858,2.057-4.59,2.802C90.026,548.681,87.645,549.706,85.033,549.706z"/>
			<path fill="#FFFFFF" d="M158.993,343.414c0.126,0,0.252,0.005,0.378,0.015c6.416,0.496,5.207,5.052,5.512,6.768
				c0.394-0.025,0.781-0.037,1.159-0.037c7.485,0,11.951,4.771,11.759,10.082c-0.417,11.576-4.958,14.729-5.512,16.089
				c-0.319,0.783-0.675,2.339,0.148,2.532c1.438,0.338,4.292,0.303,7.449,1.639c1.104,0.468,1.393,1.326,3.277,1.49
				c2.023,0.175,4.215-0.21,5.958,1.276c1.744,1.487,2.49,1.685,3.874,1.702c3.318,0.042,5.659,2.486,9.044,3.192
				c3.403,0.71,6.708,0.879,10.168,0.879c2.273,0,4.612-0.073,7.092-0.112c6.311-0.102,12.534-2.102,18.834-2.469
				c0.279-0.017,0.561-0.023,0.845-0.023c2.373,0,4.902,0.508,6.965,0.534c0.93,0.012,1.719,0.034,2.467,0.034
				c1.702,0,3.191-0.118,5.641-0.758c1.157-0.302,3.136-2.181,5.141-2.181c0.081,0,0.162,0.003,0.243,0.01
				c2.259,0.178,4.321,2.234,4.321,2.234s0.736-1.751,1.772-1.751c0.033,0,0.066,0.002,0.1,0.006
				c1.431,0.158,2.086,2.299,2.086,2.299s15.109-3.532,29.41-7.406c14.302-3.873,28.751-8.193,44.393-13.705
				c15.643-5.512,24.433-11.619,24.433-11.619s0.58,5.305-3.873,7.597c-13.925,7.166-33.368,13.955-49.607,19.068
				c-16.227,5.109-43.413,11.297-43.413,11.297s-0.28,2.89-1.403,3.302c-0.064,0.023-0.134,0.034-0.208,0.034
				c-0.716,0-1.778-1.026-1.778-1.026s-4.75,2.856-7.466,2.856c-0.036,0-0.072-0.001-0.107-0.002
				c-2.037-0.059-5.586-2.482-5.586-2.482s-16.372,5.716-21.012,5.716c-0.075,0-0.147-0.002-0.216-0.005
				c-0.236-0.717-0.124-1.104-0.661-1.289c-0.298-0.104-0.797-0.144-1.412-0.144c-0.491,0-1.056,0.025-1.652,0.066
				c-0.2,5.397-0.173,8.771,1.738,20.732c0.05,3.021-0.869,7.075-0.869,7.075s-3.693-0.347-6.5-0.347
				c-0.794,0-1.518,0.027-2.066,0.099c-0.253,3.304-1.861,4.345-1.861,4.345h-22.967c0,0-4.411-0.913-5.462-1.613
				c-1.061-0.707-1.276-2.019-3.228-2.483c-1.951,1.274-7.821,1.49-7.821,1.49s2.167,3.257,2.359,9.311
				c1.433,7.171,6.466,10.001,10.304,14.649c4.752,5.754,11.622,10.32,16.139,16.262c4.625,6.086,8.365,9.515,11.173,19.738
				c0.672,2.451-0.923,4.1,0.869,7.573c2.098,4.07,3.107,8.843,4.345,13.035c3.04,10.306,3.228,22.594,3.228,22.594
				c3.152,1.614,11.057,4.131,12.836,5.636c0.976,0.824,0.396,2.802-0.894,3.725c-1.124,0.804-2.871,0.972-4.557,0.972
				c-0.98,0-1.94-0.057-2.743-0.078c-6.164-0.16-6.81-1.652-10.278-2.085c-0.605-0.076-1.259-0.099-1.935-0.099
				c-1.079,0-2.215,0.059-3.304,0.059c-1.675,0-3.235-0.141-4.295-0.854c-2.455-1.651-1.788-3.724-1.788-3.724
				s-9.827,0.896-15.245,0.896c-0.188,0-0.37-0.001-0.546-0.003c-6.726-0.083-20.111-1.638-20.111-1.638s-2.6-20.591-6.257-29.942
				c-1.216-3.111-4.351-10.151-5.81-12.515c-2.409-3.901-7.896-11.619-7.896-11.619s-8.346,19.169-9.236,23.687
				c-0.42,2.134-0.545,7.244-2.681,12.066c-3.093,6.981-8.789,21.153-8.789,21.153s-7.873,0.326-13.454,0.326
				c-0.903,0-1.747-0.009-2.487-0.028c-4.131-0.11-12.364-0.894-12.364-0.894s0.027,1.556-0.447,2.085
				c-1.361,1.521-3.962,1.069-5.81,1.937c-2.806,1.319-5.048,3.691-7.896,4.917c-1.876,0.808-3.881,1.646-5.918,1.646
				c-0.113,0-0.226-0.003-0.338-0.008c-1.742-0.079-4.136-0.227-4.916-1.787c-0.767-1.53,0.51-3.512,1.49-4.916
				c2.028-2.907,8.491-6.406,8.491-6.406s-0.318-14.851,0.596-22.196c0.979-7.878,4.145-15.372,5.214-23.239
				c0.542-3.99-0.803-8.289,0.596-12.066c2.531-6.837,9.059-11.429,13.407-17.28c1.891-2.544,3.482-5.312,5.512-7.746
				c5.062-6.067,17.058-17.579,17.058-17.579c2.458-1.639,1.117-3.277,1.117-3.277s-1.22-1.927-1.639-2.979
				c-0.438-1.097-0.386-2.36-0.894-3.427c-0.505-1.058-0.298-1.851-1.341-2.383c-0.376-0.192-0.766-0.246-1.15-0.246
				c-0.503,0-0.999,0.093-1.445,0.093c-0.437,0-0.826-0.089-1.129-0.443c-1.164-1.356-0.482-4.549,0.446-5.958
				c1.498-2.273,3.719-3.823,4.979-6.518c1.214-2.595,0.856-6.22,0.559-8.777c-0.254-2.179-1.912-7.424-1.018-13.382
				c0.894-5.959,4.271-7.523,6.853-10.031c2.697-2.619,4.866-3.153,6.952-4.345c0.363-0.207,0.726-0.293,1.087-0.293
				c1.719,0,3.42,1.932,5.02,1.932c1.937,0,2.545-1.402,2.545-1.402s0.24-1.511,0.285-2.62c0.16-3.916-1.716-5.521-1.468-8.257
				c0.729-8.062,4.171-4.897,4.001-7.98c-0.103-1.856-3.253-1.496-3.129-4.618C152.888,346.2,155.945,343.414,158.993,343.414
				 M158.995,338.414v5V338.414h-0.001h-0.002c-5.75,0-10.991,4.886-11.213,10.455c-0.087,2.187,0.584,3.806,1.429,4.978
				c-1.274,1.774-1.994,4.156-2.285,7.37c-0.213,2.345,0.416,4.188,0.874,5.532c0.083,0.245,0.161,0.472,0.23,0.688
				c-0.748-0.25-1.586-0.423-2.507-0.423c-1.263,0-2.464,0.32-3.569,0.952c-0.416,0.238-0.887,0.463-1.431,0.725
				c-1.681,0.805-3.982,1.907-6.522,4.374c-0.392,0.381-0.862,0.778-1.359,1.199c-2.516,2.13-5.96,5.046-6.955,11.678
				c-0.82,5.466,0.14,10.286,0.714,13.166c0.122,0.61,0.247,1.241,0.282,1.536c0.162,1.395,0.542,4.66-0.121,6.079
				c-0.427,0.913-1.189,1.755-2.073,2.729c-0.81,0.894-1.729,1.906-2.552,3.156c-1.81,2.746-3.083,8.449-0.065,11.965
				c0.792,0.924,2.181,2.015,4.386,2.169c0.016,0.087,0.032,0.176,0.046,0.254c0.12,0.674,0.285,1.596,0.677,2.58
				c0.206,0.517,0.499,1.104,0.802,1.666c-2.929,2.837-12.12,11.823-16.534,17.114c-1.375,1.649-2.521,3.354-3.627,5.002
				c-0.702,1.045-1.365,2.032-2.058,2.965c-1.366,1.838-3.032,3.596-4.797,5.458c-3.588,3.785-7.298,7.699-9.286,13.068
				c-1.189,3.212-1.016,6.339-0.863,9.099c0.082,1.479,0.159,2.876,0.002,4.031c-0.479,3.526-1.434,7.027-2.445,10.734
				c-1.098,4.024-2.232,8.187-2.776,12.561c-0.702,5.642-0.718,15.157-0.674,19.967c-2.494,1.553-5.829,3.923-7.551,6.392
				c-1.095,1.568-4.004,5.736-1.86,10.017c2.111,4.223,7.05,4.447,9.16,4.543c0.185,0.009,0.375,0.013,0.565,0.013
				c3.126,0,5.883-1.187,7.896-2.053c1.982-0.854,3.618-2.03,5.062-3.069c1.058-0.761,2.057-1.479,2.985-1.916
				c0.145-0.052,0.719-0.143,1.099-0.203c1.714-0.272,4.305-0.684,6.309-2.924c0.03-0.033,0.06-0.067,0.088-0.101
				c2.775,0.232,6.444,0.509,8.864,0.573c0.747,0.021,1.628,0.03,2.62,0.03c5.62,0,13.335-0.317,13.661-0.33l3.228-0.134
				l1.205-2.998c0.057-0.141,5.7-14.171,8.721-20.992c1.918-4.331,2.44-8.614,2.785-11.448c0.084-0.688,0.163-1.338,0.23-1.678
				c0.369-1.871,2.807-8.112,5.391-14.352c0.983,1.454,1.912,2.862,2.581,3.945c1.207,1.955,4.224,8.68,5.407,11.707
				c3.388,8.664,5.928,28.55,5.954,28.75l0.491,3.888l3.893,0.452c0.557,0.064,13.722,1.585,20.626,1.671
				c0.196,0.002,0.399,0.003,0.608,0.003c3.354,0,8.198-0.317,11.619-0.579c0.639,0.929,1.502,1.802,2.623,2.556
				c2.231,1.504,4.834,1.706,7.086,1.706c0.589,0,1.191-0.016,1.792-0.031c0.509-0.014,1.017-0.027,1.511-0.027
				c0.56,0,0.99,0.02,1.314,0.06c0.802,0.101,1.322,0.284,2.185,0.589c1.784,0.63,4.005,1.414,8.584,1.533
				c0.25,0.007,0.52,0.018,0.801,0.028c0.622,0.024,1.327,0.052,2.072,0.052c2.236,0,5.106-0.217,7.466-1.905
				c2.041-1.46,3.37-3.881,3.468-6.319c0.084-2.08-0.739-4.009-2.256-5.291c-1.606-1.358-4.372-2.473-8.75-4.177
				c-0.83-0.323-1.672-0.651-2.448-0.963c-0.265-4.533-1.042-13.039-3.297-20.686c-0.278-0.941-0.543-1.913-0.813-2.898
				c-0.952-3.479-2.031-7.42-3.883-11.013c-0.396-0.767-0.372-0.988-0.259-2.054c0.12-1.126,0.284-2.668-0.232-4.55
				c-2.624-9.553-6.157-14.013-9.899-18.734c-0.687-0.866-1.397-1.763-2.115-2.708c-2.677-3.521-5.958-6.488-9.132-9.357
				c-2.639-2.387-5.132-4.641-7.132-7.062c-1.211-1.467-2.46-2.71-3.667-3.912c-2.723-2.711-4.715-4.694-5.513-8.178
				c-0.078-1.675-0.285-3.181-0.557-4.507c0.082-0.021,0.165-0.04,0.246-0.062c0.333,0.337,0.741,0.697,1.248,1.035
				c0.46,0.307,1.86,1.239,7.222,2.35l0.501,0.104h0.512h22.967h1.477l1.24-0.803c0.561-0.362,1.958-1.433,2.983-3.601
				c2.127,0.087,4.234,0.282,4.261,0.285l4.372,0.409l0.972-4.282c0.107-0.475,1.05-4.742,0.992-8.263l-0.006-0.355l-0.056-0.352
				c-1.072-6.71-1.527-10.599-1.686-13.624c4.833-0.433,14.296-3.458,19.364-5.172c1.729,0.949,3.992,1.93,6.042,1.988
				c0.08,0.002,0.165,0.004,0.251,0.004c2.425,0,5.269-1.108,7.375-2.13c0.583,0.188,1.208,0.3,1.869,0.3
				c0.667,0,1.319-0.115,1.937-0.343c1.934-0.71,3.078-2.217,3.754-3.804c7.539-1.76,27.588-6.546,40.834-10.717
				c21.732-6.843,38.687-13.367,50.394-19.392c5.927-3.052,6.91-9.348,6.555-12.587l-0.914-8.362l-6.909,4.8
				c-0.077,0.054-8.526,5.825-23.241,11.01c-13.959,4.919-27.952,9.238-44.038,13.595c-10.122,2.742-20.754,5.336-25.967,6.586
				c-0.978-0.847-2.199-1.459-3.673-1.622c-0.218-0.023-0.435-0.036-0.649-0.036c-0.825,0-1.583,0.164-2.27,0.447
				c-1.017-0.459-2.178-0.816-3.432-0.915c-0.212-0.017-0.423-0.025-0.635-0.025c-2.663,0-4.771,1.268-6.167,2.106
				c-0.167,0.101-0.378,0.228-0.523,0.31c-1.751,0.439-2.772,0.522-4.092,0.522c-0.432,0-0.878-0.008-1.361-0.017
				c-0.33-0.006-0.676-0.013-1.043-0.018c-0.721-0.009-1.657-0.112-2.649-0.222c-1.331-0.146-2.84-0.312-4.378-0.312
				c-0.382,0-0.762,0.01-1.137,0.032c-3.209,0.187-6.304,0.741-9.296,1.277c-3.259,0.584-6.337,1.135-9.326,1.184
				c-0.84,0.013-1.666,0.03-2.478,0.047c-1.582,0.033-3.076,0.064-4.534,0.064c-3.814,0-6.55-0.231-9.146-0.773
				c-0.847-0.177-1.753-0.632-2.802-1.158c-1.865-0.936-4.187-2.102-7.2-2.14c-0.021,0-0.041,0-0.059-0.001
				c-0.125-0.088-0.327-0.243-0.635-0.506c-2.696-2.299-5.691-2.365-7.673-2.409c-0.337-0.007-0.66-0.015-0.935-0.032
				c-0.394-0.289-1.033-0.748-1.922-1.125c-0.905-0.383-1.781-0.677-2.611-0.907c1.61-2.896,3.316-7.456,3.572-14.568
				c0.138-3.823-1.269-7.466-3.961-10.257c-2.421-2.51-5.707-4.143-9.465-4.745c-0.218-0.777-0.547-1.592-1.048-2.401
				c-1.162-1.874-3.591-4.189-8.567-4.574C159.503,338.424,159.25,338.414,158.995,338.414L158.995,338.414z"/>
		</g>
	</g>
</g>
</svg>
